<?xml version="1.0" encoding="iso-8859-1"?>
<!-- Generator: Adobe Illustrator 19.0.0, SVG Export Plug-In . SVG Version: 6.00 Build 0)  -->
<svg version="1.1" id="Capa_1" xmlns="http://www.w3.org/2000/svg" xmlns:xlink="http://www.w3.org/1999/xlink" x="0px" y="0px"
	 viewBox="0 0 512 512" style="enable-background:new 0 0 512 512;" xml:space="preserve">
<polygon style="fill:#79C6E4;" points="138.355,226.993 0,147.113 0,306.872 138.355,386.751 "/>
<g style="opacity:0.1;">
	<polygon points="138.355,226.993 0,147.113 0,306.872 138.355,386.751 	"/>
</g>
<polygon style="fill:#79C6E4;" points="138.355,226.993 276.71,147.113 276.71,306.872 138.355,386.751 "/>
<g style="opacity:0.2;">
	<polygon points="138.355,226.993 276.71,147.113 276.71,306.872 138.355,386.751 	"/>
</g>
<polygon style="fill:#79C6E4;" points="276.71,147.113 138.355,226.993 0,147.113 138.355,67.234 "/>
<circle style="fill:#ED718B;" cx="375.19" cy="177.149" r="136.81"/>
<path style="opacity:0.1;enable-background:new    ;" d="M471.018,79.519c9.671,18.76,15.135,40.042,15.135,62.601
	c0,75.56-61.253,136.813-136.813,136.813c-37.322,0-71.147-14.951-95.831-39.182c22.72,44.073,68.678,74.212,121.679,74.212
	c75.559,0,136.812-61.254,136.812-136.814C512,138.912,496.307,104.345,471.018,79.519z"/>
<path style="fill:#FDA75F;" d="M464.206,425.56L336.193,146.962c-4.902-10.667-20.06-10.667-24.962,0L183.219,425.56
	c0,25.461,62.901,46.101,140.493,46.101S464.206,451.022,464.206,425.56z"/>
<path style="opacity:0.1;enable-background:new    ;" d="M336.193,146.962c-2.693-5.861-8.482-8.482-13.966-7.902
	c2.539,1.837,4.526,4.557,5.405,8.071l79.627,315.494c34.547-8.399,56.946-21.873,56.946-37.065L336.193,146.962z"/>
<g>
</g>
<g>
</g>
<g>
</g>
<g>
</g>
<g>
</g>
<g>
</g>
<g>
</g>
<g>
</g>
<g>
</g>
<g>
</g>
<g>
</g>
<g>
</g>
<g>
</g>
<g>
</g>
<g>
</g>
</svg>
