<svg id="Layer_1" height="512" viewBox="0 0 48 48" width="512" xmlns="http://www.w3.org/2000/svg" data-name="Layer 1"><path d="m35 12.43v29.57a3 3 0 0 1 -3 3h-26a3 3 0 0 1 -3-3v-37a2 2 0 0 1 2-2h20.1a2 2 0 0 1 1.37.54l7.9 7.46a2 2 0 0 1 .63 1.43z" fill="#468ff1"/><path d="m35 12.43v26.57a3 3 0 0 1 -3 3h-26a3 3 0 0 1 -3-3v-34a2 2 0 0 1 2-2h20.1a2 2 0 0 1 1.37.54l7.9 7.46a2 2 0 0 1 .63 1.43z" fill="#8bcaff"/><path d="m35 12.43v.57h-9a2 2 0 0 1 -2-2v-8h1.1a2 2 0 0 1 1.37.54l7.9 7.46a2 2 0 0 1 .63 1.43z" fill="#468ff1"/><g fill="#f9f6f6"><path d="m28 35h-18a1 1 0 0 1 0-2h18a1 1 0 0 1 0 2z"/><path d="m28 29h-18a1 1 0 0 1 0-2h18a1 1 0 0 1 0 2z"/><path d="m28 23h-18a1 1 0 0 1 0-2h18a1 1 0 0 1 0 2z"/><path d="m21 17h-11a1 1 0 0 1 0-2h11a1 1 0 0 1 0 2z"/><path d="m16 11h-6a1 1 0 0 1 0-2h6a1 1 0 0 1 0 2z"/></g><circle cx="37" cy="37" fill="#ffca3a" r="8"/><path d="m37 40.5a1 1 0 0 1 -1-1v-5a1 1 0 0 1 2 0v5a1 1 0 0 1 -1 1z" fill="#f9f6f6"/><path d="m39.5 38h-5a1 1 0 0 1 0-2h5a1 1 0 0 1 0 2z" fill="#f9f6f6"/></svg>