/* XPM */
static char *new_16x16_xpm[] = {
/* columns rows colors chars-per-pixel */
"16 16 64 1 ",
"  c None",
". c #FFCA37",
"X c #FFCA38",
"o c #FFCA39",
"O c #FFCA3A",
"+ c #FFCA3C",
"@ c #FECB3D",
"# c #F3C646",
"$ c #FACA43",
"% c #F9CA44",
"& c #FFCD44",
"* c #FFCD46",
"= c #ECC753",
"- c #FFD25A",
"; c #FED466",
": c #468FF1",
"> c #478FF1",
", c #4C94F2",
"< c #4E96F3",
"1 c #4F97F3",
"2 c #5098F3",
"3 c #72B5FA",
"4 c #78BAFB",
"5 c #7ABBFB",
"6 c #8AA6B0",
"7 c #B3CBBE",
"8 c #C9CA96",
"9 c #FCDE8E",
"0 c #94C2DF",
"q c #AECAC3",
"w c #82C2FD",
"e c #82C3FD",
"r c #83C3FD",
"t c #81C2FF",
"y c #83C4FE",
"u c #8ECAFA",
"i c #88C9FF",
"p c #8AC9FF",
"a c #8ACAFF",
"s c #8BCAFF",
"d c #8BCBFF",
"f c #8CCAFF",
"g c #8CCBFF",
"h c #8DCBFF",
"j c #8ECBFE",
"k c #97CEF9",
"l c #90CCFF",
"z c #94CDFE",
"x c #94CEFE",
"c c #97CFFE",
"v c #99CFFE",
"b c #9AD0FE",
"n c #9BD0FE",
"m c #9BD1FE",
"M c #9CD1FE",
"N c #ACD7FC",
"B c #ACD7FD",
"V c #BBDDFB",
"C c #C8D8CE",
"Z c #FAEDD0",
"A c #C3E0FA",
"S c #C4E1FA",
"D c #C5E1FA",
"F c #C4E1FD",
/* pixels */
"                ",
" ssssssr,       ",
" sslblsr,:      ",
" slVDNsr2:>     ",
" ssbbbbs5333    ",
" slVDDDbssss    ",
" ssbbbbbblss    ",
" slVDDDDDNss    ",
" ssvbbbbblss    ",
" slVDDDDDNsq    ",
" ssvbbbbbv8$@@  ",
" slVDDDDDC$-9$@ ",
" ssssssss7@9Z;@ ",
" 5rrrrrrr0=$;@@ ",
" ,1,1111,,6#.@  ",
"                "
};
