/* XPM */
static char *new_32x32_xpm[] = {
/* columns rows colors chars-per-pixel */
"32 32 89 1 ",
"  c None",
". c #FFC935",
"X c #FFC937",
"o c #FFCA36",
"O c #FFCA37",
"+ c #FFCB38",
"@ c #FFCA39",
"# c #FFCA3A",
"$ c #FECA3B",
"% c #FFCA3B",
"& c #FECA3C",
"* c #FFCB3E",
"= c #D8BE60",
"- c #D0BB69",
"; c #FFCC42",
": c #F8C944",
"> c #F9CA44",
", c #FFCD47",
"< c #FED25A",
"1 c #DDC66B",
"2 c #DECA72",
"3 c #FED464",
"4 c #FDD56B",
"5 c #6E9ECE",
"6 c #6298D6",
"7 c #448DF1",
"8 c #458EF1",
"9 c #458FF1",
"0 c #468FF1",
"q c #448EF3",
"w c #4790F1",
"e c #4B93F2",
"r c #4E96F3",
"t c #4D96F4",
"y c #5198F3",
"u c #5EA4F6",
"i c #5FA4F6",
"p c #61A6F6",
"a c #73B6FA",
"s c #7EBFFC",
"d c #B5CAB9",
"f c #CECA8D",
"g c #CECA8E",
"h c #D4CA82",
"j c #D1CE97",
"k c #FCDE8D",
"l c #FCDF94",
"z c #FBE5AB",
"x c #FBE9BE",
"c c #A8CACD",
"v c #8BC3EF",
"b c #83C3FD",
"n c #82C3FE",
"m c #84C4FE",
"M c #86C6FE",
"N c #8DCAFB",
"B c #88C9FF",
"V c #89C9FF",
"C c #8AC9FF",
"Z c #89CAFF",
"A c #8ACAFF",
"S c #8BCAFF",
"D c #8CCAFF",
"F c #8CCBFF",
"G c #8DCBFF",
"H c #93CAF1",
"J c #90CBFB",
"K c #90CCFF",
"L c #92CDFE",
"P c #94CEFE",
"I c #97CFFE",
"U c #98CFFE",
"Y c #9ED2FD",
"T c #A5D4FD",
"R c #A9D6FD",
"E c #AFD9FE",
"W c #B0D9FC",
"Q c #B3DAFC",
"! c #C3D4CB",
"~ c #C0DFFB",
"^ c #D8E9F9",
"/ c #FAF2E3",
"( c #F9F3E9",
") c #E7EFF7",
"_ c #E6EFFA",
"` c #EBF0F7",
"' c #EBF1F7",
"] c #ECF1F7",
"[ c #F9F5F3",
/* pixels */
"                                ",
"                                ",
"  CCCCCCCCCCCCCbe9              ",
"  CCCCCCCCCCCCCbe9w             ",
"  CCCCCCCCCCCCCbe99w            ",
"  CCCCLYYYLCCCCbe999w           ",
"  CCCL^]]])TCCCbe9999w          ",
"  CCCCRQQQQLCCCby999999         ",
"  CCCCCCCCCCCCCCapiiiii         ",
"  CCCCLYUUUUUULCCCCCCCC         ",
"  CCCL^]]]]]]]~CCCCCCCC         ",
"  CCCCRQQQQQQQYCCCCCCCC         ",
"  CCCCCCCCCCCCCCCCCCCCC         ",
"  CCCCLUUUUUUUUUUYLCCCC         ",
"  CCCL^]]]]]]]]]]])TCCC         ",
"  CCCCRQQQQQQQQQQQQLCCC         ",
"  CCCCCCCCCCCCCCCCCCCCC         ",
"  CCCCLYUUUUUUUUUULCCCC         ",
"  CCCL^]]]]]]]]]]])TCCC         ",
"  CCCCRQQQQQQQQQQQQLCCc2O@      ",
"  CCCCCCCCCCCCCCCCCCHg>@@@@@    ",
"  CCCCLUUUUUUUYYUYLLg@@@@@@@@   ",
"  CCCL^]]]]]]]]]]]_!>@@>l<O@@@  ",
"  CCCCRQQQQQQQQQQQEjO@>3/k>@@@  ",
"  CCCCCCCCCCCCCCCCChO@l/[(x>@@  ",
"  CCCCCCCCCCCCCCCCCgO@<k(z4@@@  ",
"  bCCCCCCCCCCCCCCCCd@@O>x4O@@@  ",
"  psbbbbbbbbbbbbbbbv1O@@>@@@@   ",
"  9eeeeeeeeeeeeeeeee5=@@@@@@    ",
"   9999999999999999996-@@@@     ",
"                                ",
"                                "
};
