/* XPM */
static char *open_16x16_xpm[] = {
/* columns rows colors chars-per-pixel */
"16 16 47 1 ",
"  c None",
". c #F6BF0F",
"X c #F6BF10",
"o c #F6C010",
"O c #F6C011",
"+ c #F6C012",
"@ c #F6C114",
"# c #F6C115",
"$ c #F6C116",
"% c #F7C422",
"& c #F7C526",
"* c #F7C527",
"= c #F9CC45",
"- c #F9CC49",
"; c #FAD262",
": c #FAD464",
"> c #FAD368",
", c #FAD46A",
"< c #FAD56A",
"1 c #FAD46B",
"2 c #FBD66F",
"3 c #FAD570",
"4 c #FBD670",
"5 c #FBD770",
"6 c #FBD779",
"7 c #FBD77A",
"8 c #FBDA79",
"9 c #FBD87B",
"0 c #FBD87C",
"q c #FBD87D",
"w c #FBD87E",
"e c #FBD981",
"r c #FBDD82",
"t c #FCDE91",
"y c #FCE193",
"u c #FCE097",
"i c #FCE19C",
"p c #FCE29C",
"a c #FCE49E",
"s c #FCE3A1",
"d c #FCE5A0",
"f c #FDE7AE",
"g c #FFEFD1",
"h c #FEF3D8",
"j c #FFF5E0",
"k c #FFF5E1",
"l c #FFF5E2",
/* pixels */
"                ",
"                ",
"++++++          ",
"++XXX..         ",
"+%:422244442*   ",
"+rjjjjjjjjjg=X  ",
"+shsiiiiiiit2288",
"+if7777777778888",
"+yt8888777778888",
"+8r888777788888 ",
"+:8888888888888 ",
"%4888888888888  ",
"-8888888888888  ",
"28888877787788  ",
"                ",
"                "
};
