/* XPM */
static char *open_32x32_xpm[] = {
/* columns rows colors chars-per-pixel */
"32 32 68 1 ",
"  c None",
". c #F6BF0E",
"X c #F6BF0F",
"o c #F6BF10",
"O c #F6C010",
"+ c #F6C011",
"@ c #F6C012",
"# c #F6C014",
"$ c #F6C115",
"% c #F6C21C",
"& c #F7C321",
"* c #F7C526",
"= c #F7C529",
"- c #F7C629",
"; c #F7C62A",
": c #F8C836",
"> c #F8CA37",
", c #F8CB42",
"< c #F8CC47",
"1 c #F9CD4A",
"2 c #F9CD4D",
"3 c #F9CE4C",
"4 c #F9CE4E",
"5 c #F9CF56",
"6 c #F9D460",
"7 c #FAD665",
"8 c #FAD666",
"9 c #FAD667",
"0 c #FAD46A",
"q c #FAD56A",
"w c #FAD56B",
"e c #FAD56D",
"r c #FAD570",
"t c #FBD672",
"y c #FBD87A",
"u c #FBD87B",
"i c #FBD87C",
"p c #FBD87D",
"a c #FBD87E",
"s c #FBDA82",
"d c #FBDB86",
"f c #FCDD8C",
"g c #FCE097",
"h c #FDE09B",
"j c #FCE29F",
"k c #FDE4A9",
"l c #FDE7AB",
"z c #FEE5AE",
"x c #FDE7B1",
"c c #FEE6B2",
"v c #FEE6B3",
"b c #FDE8B4",
"n c #FDE9B7",
"m c #FEECC1",
"M c #FFECCD",
"N c #FFEFD2",
"B c #FEF2D5",
"V c #FFF3DB",
"C c #FFF4DB",
"Z c #FFF3DC",
"A c #FFF4DE",
"S c #FFF4DF",
"D c #FFF5E0",
"F c #FFF7E5",
"G c #FFF7E6",
"H c #FFF7E7",
"J c #FFF8E8",
"K c #FFF8E9",
/* pixels */
"                                ",
"                                ",
"                                ",
"                                ",
" @@@@@@@@@                      ",
"@@@@@@@@@@@@                    ",
"@@@@@@@@@@@@@                   ",
"@@@@@@@@@@@@@@@ooooooooo@@      ",
"@@@@&------------------&@@@     ",
"@@@-hccccccccccccccccccl3o@     ",
"@@>lAAAAAAAAAAAAAAAAAAAM0.@     ",
"@.7JGGJJJJJJJJJJJJJJJJGN0.@     ",
"@.7GGGmbbbbbbbbbbbbbbbblr,,0    ",
"@.7GGbuuuuuuuuuuuuuuuuuuuuuuuuuu",
"@.7GAfuuuuuuuuuuuuuuuuuuuuuuuuuu",
"@.7Jmuuuuuuuuuuuuuuuuuuuuuuuuuuu",
"@.7Gkuuuuuuuuuuuuuuuuuuuuuuuuuu ",
"@.7Bduuuuuuuuuuuuuuuuuuuuuuuuuu ",
"@.7buuuuuuuuuuuuuuuuuuuuuuuuuuu ",
"@.7guuuuuuuuuuuuuuuuuuuuuuuuuu  ",
"@@3duuuuuuuuuuuuuuuuuuuuuuuuuu  ",
"@@3uuuuuuuuuuuuuuuuuuuuuuuuuu   ",
"@%0uuuuuuuuuuuuuuuuuuuuuuuuuu   ",
"@>uuuuuuuuuuuuuuuuuuuuuuuuuuu   ",
"@5uuuuuuuuuuuuuuuuuuuuuuuuuu    ",
"&ruuuuuuuuuuuuuuuuuuuuuuuuuu    ",
"3uuuuuuuuuuuuuuuuuuuuuuuuuuu    ",
"0uuuuuuuuuuuuuuuuuuuuuuuuuu     ",
"                                ",
"                                ",
"                                ",
"                                "
};
