<svg id="Layer_2_00000170242072333172961750000010640472381525609136_" enable-background="new 0 0 512 512" viewBox="0 0 512 512" xmlns="http://www.w3.org/2000/svg"><g id="Icon"><g id="_10"><g id="Folder"><path d="m214.2 107-40.2-29.9c-9.5-7-20.9-10.8-32.7-10.8h-110.2c-16.6 0-30 13.4-30 30v349.5h404.1c15.2 0 27.4-12.3 27.4-27.4v-270.6c0-16.6-13.4-30-30-30h-155.6c-11.8 0-23.3-3.8-32.8-10.8z" fill="#f6c012"/><g><path d="m76.9 143.7h300c8.3 0 15 6.7 15 15v200c0 8.3-6.7 15-15 15h-300c-8.3 0-15-6.7-15-15v-200c0-8.3 6.7-15 15-15z" fill="#ffeac5"/><path d="m56.9 163.7h300c8.3 0 15 6.7 15 15v200c0 8.3-6.7 15-15 15h-300c-8.3 0-15-6.7-15-15v-200c0-8.3 6.7-15 15-15z" fill="#fff7e6"/></g><path d="m85.2 220.1-84.1 225.6h410.8c12.5 0 23.7-7.8 28.1-19.5l69-185.2c7.3-19.6-7.2-40.5-28.1-40.5h-367.6c-12.5.1-23.7 7.8-28.1 19.6z" fill="#fbd87c"/></g></g></g></svg>