/* XPM */
static char *pause_32x32_xpm[] = {
/* columns rows colors chars-per-pixel */
"32 32 2 1 ",
"  c None",
". c #FFBB33",
/* pixels */
"                                ",
"                                ",
"                                ",
"                                ",
"                                ",
"                                ",
"                                ",
"           ..      ..           ",
"           ...    ...           ",
"          ....    ....          ",
"          ....    ....          ",
"          ....    ....          ",
"          ....    ....          ",
"          ....    ....          ",
"          ....    ....          ",
"          ....    ....          ",
"          ....    ....          ",
"          ....    ....          ",
"          ....    ....          ",
"          ....    ....          ",
"          ....    ....          ",
"          ....    ....          ",
"          ....    ....          ",
"           ...    ...           ",
"           ..      ..           ",
"                                ",
"                                ",
"                                ",
"                                ",
"                                ",
"                                ",
"                                "
};
