/* XPM */
static char *pause_16x16_xpm[] = {
/* columns rows colors chars-per-pixel */
"16 16 2 1 ",
"  c None",
". c #FFBB33",
/* pixels */
"                ",
"                ",
"                ",
"                ",
"     ..  ..     ",
"     ..  ..     ",
"     ..  ..     ",
"     ..  ..     ",
"     ..  ..     ",
"     ..  ..     ",
"     ..  ..     ",
"     ..  ..     ",
"                ",
"                ",
"                ",
"                "
};
