/* XPM */
static char *play_all_16x16_xpm[] = {
/* columns rows colors chars-per-pixel */
"16 16 2 1 ",
"  c None",
". c #178FEB",
/* pixels */
"                ",
"                ",
"                ",
"    .           ",
"    ...    .    ",
"    .....  .    ",
"    ........    ",
"    ........    ",
"    ........    ",
"    ........    ",
"    .....  .    ",
"    ...    .    ",
"    .           ",
"                ",
"                ",
"                "
};
