<svg clip-rule="evenodd" fill-rule="evenodd" image-rendering="optimizeQuality" shape-rendering="geometricPrecision" text-rendering="geometricPrecision" viewBox="0 0 254000 254000" xmlns="http://www.w3.org/2000/svg"><g id="&#x56FE;&#x5C42;_x0020_1"><path d="m37253 0h179494c20518 0 37253 16735 37253 37253v179494c0 20518-16735 37253-37253 37253h-179494c-20518 0-37253-16735-37253-37253v-179494c0-20518 16735-37253 37253-37253z" fill="none"/><g id="_228991408" fill="#178feb"><path id="_228991456" d="m193548 121135-63163-36468-63163-36467c-2154-1244-4620-1244-6774 0-2154 1243-3386 3379-3386 5866v72934 72935c0 2487 1233 4622 3387 5866 2154 1243 4619 1243 6773 0l63163-36468 63163-36467c2153-1243 3386-3378 3386-5865s-1232-4622-3386-5866z"/><path id="_228991552" d="m171169 182898v-111796c0-3730 3043-6773 6773-6773h12222c3730 0 6773 3111 6773 6773v111796c0 3662-3111 6773-6773 6773h-12222c-3662 0-6773-3043-6773-6773z"/></g></g></svg>