<svg clip-rule="evenodd" fill-rule="evenodd" image-rendering="optimizeQuality" shape-rendering="geometricPrecision" text-rendering="geometricPrecision" viewBox="0 0 254000 254000" xmlns="http://www.w3.org/2000/svg"><g id="&#x56FE;&#x5C42;_x0020_1"><path d="m37253 0h179494c20518 0 37253 16735 37253 37253v179494c0 20518-16735 37253-37253 37253h-179494c-20518 0-37253-16735-37253-37253v-179494c0-20518 16735-37253 37253-37253z" fill="none"/><g id="_228534096" fill="#ff4141"><path id="_228534432" d="m62810 172969 110159-110159c2638-2637 6941-2637 9578 0l8643 8643c2637 2637 2637 6940 0 9578l-110159 110159c-2638 2637-6941 2637-9578 0l-8643-8643c-2637-2637-2637-6940 0-9578z"/><path id="_228534528" d="m172969 191190-110159-110159c-2637-2638-2637-6941 0-9578l8643-8643c2637-2637 6940-2637 9578 0l110159 110159c2637 2638 2637 6941 0 9578l-8643 8643c-2637 2637-6940 2637-9578 0z"/></g></g></svg>