/* XPM */
static char *save_32x32_xpm[] = {
/* columns rows colors chars-per-pixel */
"32 32 171 2 ",
"   c None",
".  c #3F4F6B",
"X  c #404F6B",
"o  c #414F6B",
"O  c #424F6B",
"+  c #424F6C",
"@  c #41506C",
"#  c #41506D",
"$  c #41516D",
"%  c #42506C",
"&  c #42516D",
"*  c #43516E",
"=  c #42526E",
"-  c #465776",
";  c #485777",
":  c #495777",
">  c #435B76",
",  c #465877",
"<  c #475877",
"1  c #4B5A75",
"2  c #485877",
"3  c #495877",
"4  c #435D78",
"5  c #445E79",
"6  c #495978",
"7  c #485979",
"8  c #495A79",
"9  c #495B7A",
"0  c #4A6482",
"q  c #4A6683",
"w  c #4B6785",
"e  c #4B6885",
"r  c #526280",
"t  c #5F6E8A",
"y  c #467189",
"u  c #4D7C98",
"i  c #67748D",
"p  c #6A7790",
"a  c #6B7790",
"s  c #6B7891",
"d  c #6F7E99",
"f  c #47879C",
"g  c #48879D",
"h  c #51859C",
"j  c #72809A",
"k  c #73819C",
"l  c #72829C",
"z  c #74819C",
"x  c #76839D",
"c  c #4F95AD",
"v  c #5095AE",
"b  c #5994AC",
"n  c #7D89A0",
"m  c #7E8FA9",
"M  c #4EBFCE",
"N  c #4FC4D3",
"B  c #4FC5D3",
"V  c #50C7D6",
"C  c #57D2E4",
"Z  c #56D7E7",
"A  c #50DAE6",
"S  c #51DBE7",
"D  c #57D9EA",
"F  c #57DAEA",
"G  c #51DCE8",
"H  c #51DDE9",
"J  c #52DEEA",
"K  c #67D7E6",
"L  c #67D8E6",
"P  c #69DAE9",
"I  c #57EEFC",
"U  c #59F0FD",
"Y  c #58F1FF",
"T  c #59F1FF",
"R  c #58F2FF",
"E  c #5AF3FF",
"W  c #71EBFA",
"Q  c #73EEFC",
"!  c #73EEFD",
"~  c #818FA8",
"^  c #8993A6",
"/  c #8993A7",
"(  c #8390A9",
")  c #8692AB",
"_  c #8893A9",
"`  c #8994A9",
"'  c #8A94A8",
"]  c #8994AA",
"[  c #8A95AB",
"{  c #8B96AA",
"}  c #929DB1",
"|  c #929DB2",
" . c #939EB2",
".. c #949FB3",
"X. c #929EB6",
"o. c #939FB6",
"O. c #97A1B6",
"+. c #98A2B7",
"@. c #99A3B8",
"#. c #A0AAC0",
"$. c #A1ABC1",
"%. c #A2ACC1",
"&. c #A5AFC5",
"*. c #A6B0C6",
"=. c #A6B0C7",
"-. c #A7B1C7",
";. c #A8B1C5",
":. c #A7B1C8",
">. c #A8B2C8",
",. c #AAB4C9",
"<. c #ADB7CA",
"1. c #ADB7CE",
"2. c #ADB7CF",
"3. c #AFB9CB",
"4. c #AFB9CC",
"5. c #AFB9CF",
"6. c #B0B9CC",
"7. c #B5BED1",
"8. c #B3BDD4",
"9. c #B3BDD5",
"0. c #B5BFD6",
"q. c #B6C0D2",
"w. c #B7C0D3",
"e. c #B7C1D3",
"r. c #B8C2DA",
"t. c #BCC5D8",
"y. c #BEC7D9",
"u. c #BEC7DA",
"i. c #BBC5DE",
"p. c #BFC8DA",
"a. c #BEC8E0",
"s. c #BCCEE6",
"d. c #BED0E8",
"f. c #C3CCDF",
"g. c #C5CEE0",
"h. c #C6CFE1",
"j. c #C3CDE6",
"k. c #C3CDE7",
"l. c #C4CDE6",
"z. c #C4CEE7",
"x. c #C6CFE7",
"c. c #C8D1E3",
"v. c #CCD3E3",
"b. c #CED5E5",
"n. c #CCD5E6",
"m. c #CFD6E6",
"M. c #CED6E7",
"N. c #C7D0E8",
"B. c #C7D0E9",
"V. c #D0D7E7",
"C. c #D1D8E8",
"Z. c #D0D8EA",
"A. c #D3DBED",
"S. c #D6DEEE",
"D. c #D7DEEF",
"F. c #D8DFEF",
"G. c #D6DFF1",
"H. c #D7DFF1",
"J. c #D8DFF0",
"K. c #CFE0F1",
"L. c #D1E2F3",
"P. c #D7E0F2",
"I. c #D8E0F0",
"U. c #D8E0F2",
"Y. c #D9E1F2",
"T. c #DAE1F2",
"R. c #DBE2F2",
"E. c #DAE2F3",
"W. c #DCE2F2",
"Q. c #DCE3F3",
"!. c #DDE4F4",
/* pixels */
"  8 8 8 8 8 < X.!.!.!.!.!.!.M.t $ $ $ X p M.M.V._ .             ",
"8 8 8 8 8 8 < X.!.!.!.!.!.!.M.t $ $ $ X p M.M.C._ X $           ",
"8 8 8 8 8 8 < X.!.!.!.!.!.!.M.t $ $ $ X p M.M.C._ X $ $         ",
"8 8 8 8 8 8 < X.!.!.!.!.!.!.M.t $ $ $ X p M.M.C._ X $ $ $       ",
"8 8 8 8 8 8 < X.!.!.!.!.!.!.M.t $ $ $ X p M.M.V._ X $ $ $ $     ",
"8 8 8 8 8 8 < X.!.!.!.!.!.!.M.t $ $ $ X p M.M.V._ X $ $ $ $ $   ",
"8 8 8 8 8 8 < X.!.!.!.!.!.!.M.t $ $ $ X p M.M.C._ X $ $ $ $ $ $ ",
"8 8 8 8 8 8 < X.!.!.!.!.!.!.M.t $ $ $ X p M.M.V._ X $ $ $ $ $ $ ",
"8 8 8 8 8 8 < X.!.!.!.!.!.!.M.t $ $ $ . p M.M.C._ X $ $ $ $ $ $ ",
"8 8 8 8 8 8 < X.!.!.!.!.!.!.S.,.@.+.+.O.;.M.M.S._ X $ $ $ $ $ $ ",
"8 8 8 8 8 8 < ) S.S.S.S.S.S.J.J.V.M.M.M.M.M.M.M.n X $ $ $ $ $ $ ",
"8 8 8 8 8 8 8 r d j j j j j j j s p p p p p p i 2 $ $ $ $ $ $ $ ",
"8 8 8 8 8 8 8 8 < < < < - < < - $ X X X X X X X $ $ $ $ $ $ $ $ ",
"8 8 8 8 8 8 8 8 8 8 8 8 8 8 8 2 $ $ $ $ $ $ $ $ $ $ $ $ $ $ $ $ ",
"8 8 8 8 8 8 q e q q q q e e e q 4 4 4 4 4 4 4 4 4 < $ $ $ $ $ $ ",
"8 8 8 8 2 u Z F F F F F F F F Z V B B B B B B B B M y $ $ $ $ $ ",
"8 8 8 8 : v E E E E E E E E E U F S S S S S S S F F g X $ $ $ $ ",
"8 8 8 8 : c E E Y Y E E E E E I F A A A A A A A S A f X $ $ $ $ ",
"8 8 8 8 : b ! ! ! ! ! ! ! ! ! ! P K K K K K K K L L h X $ $ $ $ ",
"8 8 8 8 < m L.L.L.L.L.L.L.L.L.K.d.s.s.s.s.s.s.s.s.s.j X $ $ $ $ ",
"8 8 8 8 < ~ !.!.!.!.!.!.!.!.!.G.z.g.z.z.g.g.g.g.g.g.j X $ $ $ $ ",
"8 8 8 8 < ~ !.!.!.!.!.!.!.!.!.G.B.z.z.z.g.g.g.g.g.g.j X $ $ $ $ ",
"8 8 8 8 - ~ !.!.!.Z.p.y.y.y.y.t.5.,.2.2.,.2.y.g.g.g.j X $ $ $ $ ",
"8 8 8 8 - ~ !.!.!.7.X.X.X.X.X.X._ ^ _ _ _ ^ &.g.g.g.j X $ $ $ $ ",
"8 8 8 8 - ~ !.!.!.M.e.e.e.e.e.7.,.=.:.:.:.:.y.g.g.g.j . $ $ $ $ ",
"8 8 8 8 - ~ !.!.!.!.!.!.!.!.!.L.B.g.z.z.z.z.z.g.g.g.j . $ $ $ $ ",
"8 8 8 8 - ~ !.!.!.h.4.4.4.4.4.,.&.&.&.&.#.&.7.g.z.z.j . $ $ $ $ ",
"8 8 8 8 - ~ !.!.!.7.X.X.X.X.X.X._ _ _ _ _ _ &.z.z.z.j . $ $ $ $ ",
"8 8 8 8 < ~ !.!.!.S.g.f.f.f.g.f.7.7.7.7.7.7.a.g.z.z.j . $ $ $ $ ",
"8 8 8 8 < ~ !.!.!.!.!.!.!.!.!.G.B.g.z.g.z.z.g.g.g.g.j . $ $ $ $ ",
"8 8 8 8 < ~ !.!.!.!.!.!.!.!.!.G.g.g.g.g.z.z.z.g.g.g.j . $ $ $ $ ",
"  8 8 8 < ) !.!.!.!.!.!.!.!.!.G.g.g.g.g.z.z.z.z.g.g.j . $ $ $   "
};
