/* XPM */
static char *save_16x16_xpm[] = {
/* columns rows colors chars-per-pixel */
"16 16 123 2 ",
"   c None",
".  c #3F4E6B",
"X  c #414E6B",
"o  c #404F6B",
"O  c #414F6B",
"+  c #424F6B",
"@  c #41506C",
"#  c #41506D",
"$  c #42506C",
"%  c #42506D",
"&  c #42516D",
"*  c #485675",
"=  c #485777",
"-  c #475877",
";  c #485877",
":  c #495877",
">  c #435D78",
",  c #485978",
"<  c #495978",
"1  c #495979",
"2  c #495A79",
"3  c #57657F",
"4  c #4A6785",
"5  c #5E6E8B",
"6  c #45728A",
"7  c #55708A",
"8  c #4D7E99",
"9  c #5E7C97",
"0  c #616F8A",
"q  c #6A7790",
"w  c #6B7890",
"e  c #6D7A92",
"r  c #6B7A96",
"t  c #6C7A96",
"y  c #6C7B96",
"u  c #748098",
"i  c #73819C",
"p  c #498DA2",
"a  c #4992A6",
"s  c #4A94A8",
"d  c #509CB3",
"f  c #509FB6",
"g  c #51A1B8",
"h  c #51A2B9",
"j  c #50D6E2",
"k  c #50DCE7",
"l  c #50DCE8",
"z  c #51DFEA",
"x  c #58ECFB",
"c  c #58F0FE",
"v  c #59F3FF",
"b  c #949EB3",
"n  c #94A0B6",
"m  c #95A1B7",
"M  c #97A1B6",
"N  c #98A2B7",
"B  c #9CA6BC",
"V  c #9DA7BD",
"C  c #9EA8BD",
"Z  c #9EA8BE",
"A  c #9EA9BF",
"S  c #A0AAC0",
"D  c #A0ABC1",
"F  c #A2ADC3",
"G  c #A8B2C6",
"H  c #AAB4C7",
"J  c #ABB5C8",
"K  c #ACB6C9",
"L  c #ADB6C9",
"P  c #ADB7CA",
"I  c #AFB8CB",
"U  c #AFB9CD",
"Y  c #AFB9D0",
"T  c #B0BAD1",
"R  c #B1BBD2",
"E  c #B7C1D9",
"W  c #B8C2DA",
"Q  c #B9C3DA",
"!  c #B9C3DB",
"~  c #B9C3DC",
"^  c #BFC8DB",
"/  c #8DCEE1",
"(  c #90D3E6",
")  c #91D3E6",
"_  c #92D5E8",
"`  c #BEC8E1",
"'  c #BEC9E2",
"]  c #9DE2F3",
"[  c #9FE6F6",
"{  c #A1E8F8",
"}  c #C1CADC",
"|  c #C2CBDD",
" . c #C0C8E1",
".. c #C0CAE3",
"X. c #C4CCE5",
"o. c #C5CDE6",
"O. c #C4CDE7",
"+. c #C4CEE7",
"@. c #C7CFE7",
"#. c #C8D1E3",
"$. c #CBD3E5",
"%. c #CBD4E5",
"&. c #CED5E5",
"*. c #CDD5E7",
"=. c #CED6E7",
"-. c #C6D0E8",
";. c #D0D7E7",
":. c #D5DBED",
">. c #D3DCED",
",. c #D4DCED",
"<. c #D4DCEE",
"1. c #D6DEEF",
"2. c #D8DFEF",
"3. c #D7DFF1",
"4. c #D8DEF0",
"5. c #DBE0F1",
"6. c #DAE1F1",
"7. c #DBE1F2",
"8. c #DBE2F2",
"9. c #DAE2F3",
"0. c #DDE4F4",
"q. c #DEE5F4",
"w. c #DFE6F5",
/* pixels */
"2 2 - i 2.8.8.m & & N *.t       ",
"2 2 - i 2.8.8.m & & N *.q o     ",
"2 2 - i 2.8.8.m & & N *.q o &   ",
"2 2 - i 2.8.8.m . . m *.q o & & ",
"2 2 - i 8.8.8.U i i K ;.t o & & ",
"2 2 2 5 A F F F N m N b 3 & & & ",
"2 2 2 : * * : * & o o o o & & & ",
"2 2 4 f h h h f s a a a p > & & ",
"2 : 8 x v v v v z k k z j 6 o & ",
"2 : 9 ] { { { ] _ ( ( ( / 7 o & ",
"2 - t :.8.8.8.4.X.X.X.X.X.0 o & ",
"2 - t :.*.U K K F A F ~ ` 0 o & ",
"2 - t :.:.| | ^ R Y R ` ` 0 o & ",
"2 - t :.*.K G G A B B ~ ` 0 o & ",
"2 - t :.:.*.*.*.~ E ~ X.` 0 o & ",
"2 - t :.8.8.8.6.-.X.X.X.` 0 o & "
};
