<?xml version="1.0" encoding="UTF-8" standalone="no"?>
<!DOCTYPE svg PUBLIC "-//W3C//DTD SVG 1.1//EN" "http://www.w3.org/Graphics/SVG/1.1/DTD/svg11.dtd">
<svg width="100%" height="100%" viewBox="0 0 101 15" version="1.1" xmlns="http://www.w3.org/2000/svg" xmlns:xlink="http://www.w3.org/1999/xlink" xml:space="preserve" xmlns:serif="http://www.serif.com/" style="fill-rule:evenodd;clip-rule:evenodd;stroke-linejoin:round;stroke-miterlimit:2;">
    <g transform="matrix(1,0,0,1,0,-18.9242)">
        <g id="Apple-button" serif:id="Apple button" transform="matrix(0.0972985,0,0,0.014249,0,18.9242)">
            <rect x="0" y="0" width="1028" height="1028" style="fill:none;"/>
            <g transform="matrix(5.12969,0,0,25.02,0,0)">
                <rect x="0" y="0" width="200.402" height="41.087" style="fill:rgb(194,210,223);"/>
            </g>
            <g transform="matrix(3.66409,0,0,25.02,0,0)">
                <rect x="0" y="0" width="50" height="41.087" style="fill:rgb(94,114,131);"/>
            </g>
            <g transform="matrix(2.32368,0,0,15.8671,70.4683,180.895)">
                <path d="M96.237,22.386C96.237,24.069 95.916,25.474 95.272,26.602C94.628,27.729 93.696,28.578 92.476,29.147C91.257,29.716 89.788,30 88.071,30L83.84,30L83.84,15.058L88.531,15.058C90.098,15.058 91.458,15.336 92.609,15.891C93.761,16.446 94.653,17.267 95.287,18.354C95.921,19.441 96.237,20.785 96.237,22.386ZM92.947,22.468C92.947,21.364 92.785,20.456 92.461,19.744C92.137,19.032 91.66,18.506 91.03,18.165C90.4,17.824 89.622,17.654 88.695,17.654L87.009,17.654L87.009,27.384L88.368,27.384C89.915,27.384 91.064,26.971 91.817,26.147C92.57,25.323 92.947,24.096 92.947,22.468Z" style="fill-rule:nonzero;"/>
                <path d="M113.943,22.509C113.943,23.66 113.8,24.708 113.514,25.651C113.228,26.595 112.793,27.407 112.211,28.089C111.628,28.77 110.891,29.293 109.998,29.658C109.105,30.022 108.049,30.204 106.83,30.204C105.61,30.204 104.554,30.022 103.661,29.658C102.769,29.293 102.031,28.77 101.449,28.089C100.866,27.407 100.432,26.593 100.146,25.646C99.86,24.699 99.716,23.646 99.716,22.488C99.716,20.941 99.97,19.594 100.478,18.446C100.985,17.298 101.767,16.407 102.823,15.773C103.88,15.14 105.222,14.823 106.85,14.823C108.472,14.823 109.806,15.14 110.851,15.773C111.897,16.407 112.674,17.3 113.182,18.451C113.689,19.603 113.943,20.955 113.943,22.509ZM103.038,22.509C103.038,23.551 103.169,24.449 103.432,25.202C103.694,25.954 104.104,26.534 104.663,26.939C105.222,27.344 105.944,27.547 106.83,27.547C107.729,27.547 108.458,27.344 109.017,26.939C109.576,26.534 109.983,25.954 110.238,25.202C110.494,24.449 110.622,23.551 110.622,22.509C110.622,20.941 110.329,19.708 109.743,18.809C109.157,17.909 108.192,17.46 106.85,17.46C105.958,17.46 105.23,17.662 104.668,18.068C104.106,18.473 103.694,19.052 103.432,19.805C103.169,20.558 103.038,21.459 103.038,22.509Z" style="fill-rule:nonzero;"/>
                <path d="M136.442,15.058L132.64,30L129.032,30L127.009,22.151C126.968,22.001 126.913,21.773 126.845,21.466C126.777,21.159 126.706,20.824 126.631,20.459C126.556,20.095 126.489,19.751 126.431,19.427C126.373,19.103 126.334,18.846 126.314,18.655C126.293,18.846 126.254,19.102 126.196,19.422C126.138,19.742 126.074,20.083 126.002,20.444C125.93,20.805 125.861,21.142 125.792,21.456C125.724,21.769 125.67,22.008 125.629,22.171L123.616,30L120.018,30L116.206,15.058L119.323,15.058L121.234,23.214C121.289,23.459 121.352,23.752 121.423,24.093C121.495,24.433 121.566,24.789 121.638,25.161C121.709,25.532 121.774,25.89 121.832,26.234C121.89,26.578 121.933,26.876 121.96,27.128C121.994,26.869 122.038,26.568 122.093,26.224C122.147,25.88 122.207,25.529 122.272,25.171C122.336,24.813 122.403,24.481 122.471,24.174C122.539,23.868 122.6,23.619 122.655,23.428L124.832,15.058L127.826,15.058L130.003,23.428C130.051,23.612 130.107,23.859 130.172,24.169C130.237,24.479 130.303,24.815 130.371,25.176C130.439,25.537 130.502,25.89 130.56,26.234C130.618,26.578 130.661,26.876 130.688,27.128C130.736,26.787 130.802,26.374 130.887,25.886C130.972,25.399 131.064,24.914 131.163,24.43C131.262,23.946 131.349,23.541 131.424,23.214L133.325,15.058L136.442,15.058Z" style="fill-rule:nonzero;"/>
                <path d="M152.625,30L148.598,30L142.098,18.696L142.006,18.696C142.033,19.166 142.057,19.64 142.078,20.117C142.098,20.594 142.118,21.069 142.139,21.543C142.159,22.016 142.18,22.491 142.2,22.968L142.2,30L139.369,30L139.369,15.058L143.365,15.058L149.855,26.249L149.927,26.249C149.913,25.786 149.896,25.326 149.876,24.869C149.855,24.413 149.836,23.956 149.819,23.5C149.802,23.043 149.787,22.587 149.773,22.13L149.773,15.058L152.625,15.058L152.625,30Z" style="fill-rule:nonzero;"/>
                <path d="M157.432,30L157.432,15.058L160.601,15.058L160.601,27.384L166.661,27.384L166.661,30L157.432,30Z" style="fill-rule:nonzero;"/>
                <path d="M183.866,22.509C183.866,23.66 183.723,24.708 183.437,25.651C183.151,26.595 182.716,27.407 182.134,28.089C181.551,28.77 180.814,29.293 179.921,29.658C179.029,30.022 177.973,30.204 176.753,30.204C175.533,30.204 174.477,30.022 173.585,29.658C172.692,29.293 171.954,28.77 171.372,28.089C170.789,27.407 170.355,26.593 170.069,25.646C169.783,24.699 169.64,23.646 169.64,22.488C169.64,20.941 169.893,19.594 170.401,18.446C170.909,17.298 171.69,16.407 172.747,15.773C173.803,15.14 175.145,14.823 176.773,14.823C178.395,14.823 179.729,15.14 180.775,15.773C181.82,16.407 182.597,17.3 183.105,18.451C183.612,19.603 183.866,20.955 183.866,22.509ZM172.961,22.509C172.961,23.551 173.092,24.449 173.355,25.202C173.617,25.954 174.027,26.534 174.586,26.939C175.145,27.344 175.867,27.547 176.753,27.547C177.652,27.547 178.381,27.344 178.94,26.939C179.499,26.534 179.906,25.954 180.161,25.202C180.417,24.449 180.545,23.551 180.545,22.509C180.545,20.941 180.252,19.708 179.666,18.809C179.08,17.909 178.116,17.46 176.773,17.46C175.881,17.46 175.153,17.662 174.591,18.068C174.029,18.473 173.617,19.052 173.355,19.805C173.092,20.558 172.961,21.459 172.961,22.509Z" style="fill-rule:nonzero;"/>
                <path d="M197.157,30L196.073,26.443L190.626,26.443L189.543,30L186.129,30L191.403,14.997L195.276,14.997L200.57,30L197.157,30ZM195.317,23.786L194.234,20.311C194.166,20.08 194.075,19.781 193.963,19.417C193.85,19.052 193.738,18.681 193.626,18.303C193.513,17.925 193.423,17.596 193.355,17.317C193.287,17.596 193.193,17.942 193.074,18.354C192.954,18.766 192.84,19.156 192.731,19.524C192.622,19.892 192.544,20.154 192.496,20.311L191.423,23.786L195.317,23.786Z" style="fill-rule:nonzero;"/>
                <path d="M215.895,22.386C215.895,24.069 215.573,25.474 214.929,26.602C214.285,27.729 213.353,28.578 212.133,29.147C210.914,29.716 209.446,30 207.729,30L203.497,30L203.497,15.058L208.188,15.058C209.756,15.058 211.115,15.336 212.266,15.891C213.418,16.446 214.31,17.267 214.944,18.354C215.578,19.441 215.895,20.785 215.895,22.386ZM212.604,22.468C212.604,21.364 212.442,20.456 212.118,19.744C211.795,19.032 211.318,18.506 210.687,18.165C210.057,17.824 209.279,17.654 208.352,17.654L206.666,17.654L206.666,27.384L208.025,27.384C209.572,27.384 210.721,26.971 211.474,26.147C212.227,25.323 212.604,24.096 212.604,22.468Z" style="fill-rule:nonzero;"/>
                <path d="M231.804,30L228.687,30L228.687,15.058L237.251,15.058L237.251,17.654L231.804,17.654L231.804,21.507L236.873,21.507L236.873,24.093L231.804,24.093L231.804,30Z" style="fill-rule:nonzero;"/>
                <path d="M254.783,22.509C254.783,23.66 254.64,24.708 254.354,25.651C254.068,26.595 253.633,27.407 253.051,28.089C252.468,28.77 251.731,29.293 250.838,29.658C249.946,30.022 248.89,30.204 247.67,30.204C246.45,30.204 245.394,30.022 244.502,29.658C243.609,29.293 242.872,28.77 242.289,28.089C241.706,27.407 241.272,26.593 240.986,25.646C240.7,24.699 240.557,23.646 240.557,22.488C240.557,20.941 240.81,19.594 241.318,18.446C241.826,17.298 242.608,16.407 243.664,15.773C244.72,15.14 246.062,14.823 247.69,14.823C249.312,14.823 250.646,15.14 251.692,15.773C252.738,16.407 253.514,17.3 254.022,18.451C254.529,19.603 254.783,20.955 254.783,22.509ZM243.878,22.509C243.878,23.551 244.009,24.449 244.272,25.202C244.534,25.954 244.945,26.534 245.503,26.939C246.062,27.344 246.784,27.547 247.67,27.547C248.569,27.547 249.298,27.344 249.857,26.939C250.416,26.534 250.823,25.954 251.078,25.202C251.334,24.449 251.462,23.551 251.462,22.509C251.462,20.941 251.169,19.708 250.583,18.809C249.997,17.909 249.033,17.46 247.69,17.46C246.798,17.46 246.07,17.662 245.508,18.068C244.946,18.473 244.534,19.052 244.272,19.805C244.009,20.558 243.878,21.459 243.878,22.509Z" style="fill-rule:nonzero;"/>
                <path d="M263.28,15.058C264.636,15.058 265.755,15.221 266.638,15.549C267.52,15.876 268.176,16.37 268.605,17.03C269.034,17.691 269.249,18.526 269.249,19.534C269.249,20.216 269.12,20.812 268.861,21.323C268.602,21.834 268.261,22.267 267.839,22.621C267.416,22.975 266.96,23.265 266.469,23.49L270.864,30L267.348,30L263.781,24.266L262.095,24.266L262.095,30L258.927,30L258.927,15.058L263.28,15.058ZM263.056,17.654L262.095,17.654L262.095,21.691L263.117,21.691C264.166,21.691 264.917,21.515 265.37,21.165C265.824,20.814 266.05,20.298 266.05,19.616C266.05,18.908 265.807,18.403 265.319,18.104C264.832,17.804 264.078,17.654 263.056,17.654Z" style="fill-rule:nonzero;"/>
                <path d="M288.766,30L285.169,18.277L285.077,18.277C285.09,18.557 285.113,18.977 285.143,19.54C285.174,20.102 285.203,20.7 285.23,21.333C285.257,21.967 285.271,22.539 285.271,23.05L285.271,30L282.44,30L282.44,15.058L286.753,15.058L290.289,26.484L290.35,26.484L294.101,15.058L298.414,15.058L298.414,30L295.461,30L295.461,22.928C295.461,22.457 295.469,21.916 295.486,21.303C295.503,20.689 295.525,20.105 295.553,19.55C295.58,18.994 295.6,18.577 295.614,18.298L295.522,18.298L291.669,30L288.766,30Z" style="fill-rule:nonzero;"/>
                <path d="M312.369,30L311.286,26.443L305.838,26.443L304.755,30L301.341,30L306.615,14.997L310.488,14.997L315.783,30L312.369,30ZM310.529,23.786L309.446,20.311C309.378,20.08 309.288,19.781 309.175,19.417C309.063,19.052 308.95,18.681 308.838,18.303C308.725,17.925 308.635,17.596 308.567,17.317C308.499,17.596 308.405,17.942 308.286,18.354C308.167,18.766 308.053,19.156 307.944,19.524C307.835,19.892 307.756,20.154 307.709,20.311L306.635,23.786L310.529,23.786Z" style="fill-rule:nonzero;"/>
                <path d="M325.056,17.48C324.45,17.48 323.913,17.598 323.447,17.833C322.98,18.068 322.588,18.407 322.271,18.85C321.955,19.293 321.714,19.827 321.551,20.454C321.387,21.081 321.306,21.786 321.306,22.57C321.306,23.626 321.437,24.527 321.699,25.273C321.961,26.019 322.369,26.588 322.92,26.98C323.472,27.372 324.184,27.568 325.056,27.568C325.663,27.568 326.271,27.499 326.881,27.363C327.491,27.227 328.153,27.033 328.869,26.781L328.869,29.438C328.208,29.71 327.557,29.906 326.917,30.026C326.276,30.145 325.557,30.204 324.76,30.204C323.22,30.204 321.955,29.886 320.963,29.249C319.972,28.612 319.238,27.719 318.761,26.571C318.284,25.423 318.045,24.082 318.045,22.549C318.045,21.418 318.199,20.383 318.505,19.442C318.812,18.502 319.262,17.688 319.854,17C320.447,16.312 321.18,15.78 322.052,15.405C322.924,15.031 323.925,14.843 325.056,14.843C325.799,14.843 326.544,14.937 327.29,15.124C328.036,15.312 328.749,15.569 329.431,15.896L328.409,18.472C327.85,18.206 327.288,17.974 326.722,17.777C326.157,17.579 325.602,17.48 325.056,17.48Z" style="fill-rule:nonzero;"/>
                <path d="M351.813,20.007C351.813,21.543 351.622,22.94 351.24,24.199C350.859,25.458 350.279,26.542 349.502,27.451C348.725,28.359 347.741,29.057 346.551,29.543C345.36,30.03 343.951,30.273 342.324,30.273C340.697,30.273 339.289,30.03 338.098,29.543C336.907,29.057 335.923,28.359 335.146,27.451C334.369,26.542 333.79,25.456 333.408,24.192C333.026,22.929 332.836,21.525 332.836,19.98C332.836,17.916 333.174,16.119 333.851,14.588C334.528,13.056 335.571,11.868 336.98,11.022C338.389,10.177 340.179,9.755 342.352,9.755C344.515,9.755 346.294,10.177 347.689,11.022C349.084,11.868 350.12,13.058 350.797,14.594C351.474,16.13 351.813,17.935 351.813,20.007ZM337.266,20.007C337.266,21.397 337.441,22.595 337.791,23.599C338.141,24.603 338.689,25.376 339.434,25.917C340.179,26.458 341.143,26.728 342.324,26.728C343.524,26.728 344.496,26.458 345.242,25.917C345.987,25.376 346.53,24.603 346.871,23.599C347.212,22.595 347.382,21.397 347.382,20.007C347.382,17.916 346.991,16.271 346.21,15.072C345.428,13.872 344.142,13.272 342.352,13.272C341.161,13.272 340.191,13.542 339.441,14.083C338.691,14.624 338.141,15.397 337.791,16.401C337.441,17.405 337.266,18.607 337.266,20.007Z" style="fill-rule:nonzero;"/>
                <path d="M369.105,24.465C369.105,25.646 368.819,26.673 368.247,27.546C367.674,28.419 366.84,29.091 365.745,29.564C364.65,30.036 363.32,30.273 361.757,30.273C361.066,30.273 360.392,30.227 359.733,30.136C359.074,30.045 358.442,29.911 357.838,29.734C357.233,29.557 356.658,29.337 356.113,29.073L356.113,25.147C357.058,25.565 358.04,25.942 359.058,26.278C360.076,26.614 361.085,26.783 362.084,26.783C362.775,26.783 363.332,26.692 363.754,26.51C364.177,26.328 364.484,26.078 364.675,25.76C364.866,25.442 364.961,25.078 364.961,24.669C364.961,24.17 364.793,23.742 364.457,23.388C364.12,23.033 363.659,22.702 363.073,22.393C362.487,22.084 361.825,21.752 361.089,21.397C360.626,21.179 360.121,20.913 359.576,20.6C359.03,20.286 358.512,19.902 358.022,19.448C357.531,18.993 357.129,18.441 356.815,17.791C356.501,17.142 356.345,16.362 356.345,15.453C356.345,14.263 356.617,13.245 357.163,12.399C357.708,11.554 358.487,10.907 359.501,10.457C360.514,10.007 361.712,9.782 363.093,9.782C364.129,9.782 365.118,9.902 366.058,10.143C366.999,10.384 367.983,10.732 369.01,11.186L367.647,14.472C366.729,14.099 365.906,13.81 365.179,13.606C364.452,13.401 363.711,13.299 362.957,13.299C362.43,13.299 361.98,13.383 361.607,13.551C361.235,13.72 360.953,13.956 360.762,14.26C360.571,14.565 360.476,14.917 360.476,15.317C360.476,15.79 360.614,16.187 360.891,16.51C361.169,16.833 361.587,17.144 362.146,17.444C362.705,17.744 363.402,18.094 364.238,18.494C365.256,18.975 366.127,19.477 366.849,20C367.572,20.523 368.128,21.136 368.519,21.84C368.91,22.545 369.105,23.42 369.105,24.465Z" style="fill-rule:nonzero;"/>
            </g>
            <g id="Apple_logo_white.svg" transform="matrix(0.112377,0,0,0.767358,91.6022,508.779)">
                <g transform="matrix(1,0,0,1,-421.16,-500)">
                    <clipPath id="_clip1">
                        <rect x="0" y="0" width="842.32" height="1000"/>
                    </clipPath>
                    <g clip-path="url(#_clip1)">
                        <path d="M824.666,779.304C809.543,814.241 791.643,846.4 770.903,875.967C742.632,916.275 719.484,944.175 701.645,959.669C673.992,985.1 644.363,998.124 612.636,998.865C589.859,998.865 562.39,992.384 530.416,979.236C498.337,966.15 468.856,959.669 441.9,959.669C413.629,959.669 383.309,966.15 350.878,979.236C318.398,992.384 292.232,999.235 272.226,999.914C241.801,1001.21 211.475,987.816 181.204,959.669C161.884,942.817 137.718,913.929 108.768,873.004C77.708,829.302 52.171,778.625 32.166,720.849C10.74,658.443 0,598.013 0,539.508C0,472.492 14.481,414.691 43.486,366.254C66.282,327.348 96.608,296.658 134.564,274.128C172.519,251.597 213.531,240.116 257.696,239.382C281.862,239.382 313.552,246.857 352.934,261.548C392.204,276.288 417.419,283.763 428.475,283.763C436.74,283.763 464.751,275.023 512.238,257.597C557.144,241.437 595.044,234.746 626.092,237.382C710.225,244.172 773.433,277.337 815.469,337.089C740.224,382.68 703.003,446.536 703.744,528.453C704.423,592.26 727.571,645.357 773.063,687.516C793.68,707.084 816.704,722.207 842.32,732.947C836.765,749.058 830.901,764.489 824.666,779.304ZM631.709,20.006C631.709,70.017 613.438,116.713 577.02,159.934C533.07,211.315 479.911,241.005 422.265,236.32C421.53,230.32 421.105,224.006 421.105,217.37C421.105,169.359 442.005,117.978 479.121,75.967C497.652,54.696 521.219,37.009 549.798,22.901C578.316,9.002 605.29,1.316 630.66,0C631.401,6.686 631.709,13.372 631.709,20.005L631.709,20.006Z" style="fill:white;fill-rule:nonzero;"/>
                    </g>
                </g>
            </g>
        </g>
    </g>
</svg>
