<?xml version="1.0" encoding="UTF-8" standalone="no"?>
<!DOCTYPE svg PUBLIC "-//W3C//DTD SVG 1.1//EN" "http://www.w3.org/Graphics/SVG/1.1/DTD/svg11.dtd">
<svg width="100px" height="14.6px" viewBox="0 0 101 15" version="1.1" xmlns="http://www.w3.org/2000/svg" xmlns:xlink="http://www.w3.org/1999/xlink" xml:space="preserve" xmlns:serif="http://www.serif.com/" style="fill-rule:evenodd;clip-rule:evenodd;stroke-linejoin:round;stroke-miterlimit:2;">
    <g id="Windows-button" serif:id="Windows button" transform="matrix(0.0972985,0,0,0.014249,2.02653e-14,0)">
        <rect x="0" y="0" width="1028" height="1028" style="fill:none;"/>
        <g transform="matrix(5.12969,0,0,25.02,0,0)">
            <rect x="0" y="0" width="200.402" height="41.087" style="fill:rgb(194,210,223);"/>
        </g>
        <g transform="matrix(3.66409,0,0,25.02,0,0)">
            <rect x="0" y="0" width="50" height="41.087" style="fill:rgb(94,114,131);"/>
        </g>
        <g id="Windows_logo_-_2021_-White-.svg" serif:id="Windows_logo_-_2021_(White).svg" transform="matrix(0.0235998,0,0,0.161149,91.6022,514)">
            <g transform="matrix(1,0,0,1,-2437.5,-2437.5)">
                <path d="M0,0L2311,0L2311,2310L0,2310L0,0ZM2564,0L4875,0L4875,2310L2564,2310L2564,0ZM0,2564L2311,2564L2311,4875L0,4875L0,2564ZM2564,2564L4875,2564L4875,4875L2564,4875" style="fill:white;fill-rule:nonzero;"/>
            </g>
        </g>
        <g transform="matrix(2.32368,0,0,15.8671,70.4683,180.895)">
            <g transform="matrix(27.9209,0,0,27.9209,63.2799,30)">
                <path d="M0.682,-0.364C0.682,-0.283 0.667,-0.216 0.636,-0.162C0.605,-0.108 0.561,-0.068 0.502,-0.041C0.444,-0.014 0.374,-0 0.292,-0L0.09,-0L0.09,-0.714L0.314,-0.714C0.389,-0.714 0.454,-0.701 0.509,-0.674C0.564,-0.648 0.606,-0.608 0.637,-0.556C0.667,-0.504 0.682,-0.44 0.682,-0.364ZM0.525,-0.36C0.525,-0.413 0.517,-0.456 0.502,-0.49C0.486,-0.524 0.463,-0.549 0.433,-0.565C0.403,-0.582 0.366,-0.59 0.322,-0.59L0.241,-0.59L0.241,-0.125L0.306,-0.125C0.38,-0.125 0.435,-0.145 0.471,-0.184C0.507,-0.223 0.525,-0.282 0.525,-0.36Z" style="fill-rule:nonzero;"/>
            </g>
            <g transform="matrix(20.9311,0,0,20.9311,85.344,30)">
                <path d="M0.738,-0.358C0.738,-0.303 0.731,-0.253 0.717,-0.208C0.704,-0.163 0.683,-0.124 0.655,-0.091C0.627,-0.059 0.592,-0.034 0.549,-0.016C0.507,0.001 0.456,0.01 0.398,0.01C0.34,0.01 0.289,0.001 0.247,-0.016C0.204,-0.034 0.169,-0.059 0.141,-0.091C0.113,-0.124 0.092,-0.163 0.079,-0.208C0.065,-0.253 0.058,-0.304 0.058,-0.359C0.058,-0.433 0.07,-0.497 0.094,-0.552C0.119,-0.607 0.156,-0.649 0.207,-0.68C0.257,-0.71 0.321,-0.725 0.399,-0.725C0.476,-0.725 0.54,-0.71 0.59,-0.68C0.64,-0.649 0.677,-0.607 0.701,-0.552C0.726,-0.497 0.738,-0.432 0.738,-0.358ZM0.217,-0.358C0.217,-0.308 0.223,-0.265 0.236,-0.229C0.248,-0.193 0.268,-0.166 0.294,-0.146C0.321,-0.127 0.356,-0.117 0.398,-0.117C0.441,-0.117 0.476,-0.127 0.502,-0.146C0.529,-0.166 0.549,-0.193 0.561,-0.229C0.573,-0.265 0.579,-0.308 0.579,-0.358C0.579,-0.433 0.565,-0.492 0.537,-0.535C0.509,-0.578 0.463,-0.599 0.399,-0.599C0.356,-0.599 0.322,-0.589 0.295,-0.57C0.268,-0.551 0.248,-0.523 0.236,-0.487C0.223,-0.451 0.217,-0.408 0.217,-0.358Z" style="fill-rule:nonzero;"/>
            </g>
            <g transform="matrix(20.9311,0,0,20.9311,103.05,30)">
                <path d="M0.967,-0.714L0.785,-0L0.613,-0L0.516,-0.375C0.514,-0.382 0.512,-0.393 0.508,-0.408C0.505,-0.422 0.502,-0.438 0.498,-0.456C0.494,-0.473 0.491,-0.49 0.489,-0.505C0.486,-0.521 0.484,-0.533 0.483,-0.542C0.482,-0.533 0.48,-0.521 0.477,-0.505C0.475,-0.49 0.471,-0.474 0.468,-0.457C0.465,-0.439 0.461,-0.423 0.458,-0.408C0.455,-0.393 0.452,-0.382 0.45,-0.374L0.354,-0L0.182,-0L0,-0.714L0.149,-0.714L0.24,-0.324C0.243,-0.313 0.246,-0.299 0.249,-0.282C0.253,-0.266 0.256,-0.249 0.26,-0.231C0.263,-0.213 0.266,-0.196 0.269,-0.18C0.272,-0.163 0.274,-0.149 0.275,-0.137C0.277,-0.15 0.279,-0.164 0.281,-0.18C0.284,-0.197 0.287,-0.214 0.29,-0.231C0.293,-0.248 0.296,-0.264 0.299,-0.278C0.303,-0.293 0.306,-0.305 0.308,-0.314L0.412,-0.714L0.555,-0.714L0.659,-0.314C0.661,-0.305 0.664,-0.293 0.667,-0.279C0.67,-0.264 0.674,-0.248 0.677,-0.23C0.68,-0.213 0.683,-0.196 0.686,-0.18C0.689,-0.163 0.691,-0.149 0.692,-0.137C0.694,-0.153 0.697,-0.173 0.701,-0.197C0.705,-0.22 0.71,-0.243 0.715,-0.266C0.719,-0.289 0.723,-0.309 0.727,-0.324L0.818,-0.714L0.967,-0.714Z" style="fill-rule:nonzero;"/>
            </g>
            <g transform="matrix(20.9311,0,0,20.9311,124.332,30)">
                <path d="M0.723,-0L0.531,-0L0.22,-0.54L0.216,-0.54C0.217,-0.518 0.218,-0.495 0.219,-0.472C0.22,-0.449 0.224,-0.359 0.225,-0.336L0.225,-0L0.09,-0L0.09,-0.714L0.281,-0.714L0.591,-0.179L0.594,-0.179C0.594,-0.201 0.593,-0.223 0.592,-0.245C0.591,-0.267 0.59,-0.289 0.589,-0.311C0.588,-0.332 0.588,-0.354 0.587,-0.376L0.587,-0.714L0.723,-0.714L0.723,-0Z" style="fill-rule:nonzero;"/>
            </g>
            <g transform="matrix(20.9311,0,0,20.9311,142.396,30)">
                <path d="M0.09,-0L0.09,-0.714L0.241,-0.714L0.241,-0.125L0.531,-0.125L0.531,-0L0.09,-0Z" style="fill-rule:nonzero;"/>
            </g>
            <g transform="matrix(20.9311,0,0,20.9311,155.267,30)">
                <path d="M0.738,-0.358C0.738,-0.303 0.731,-0.253 0.717,-0.208C0.704,-0.163 0.683,-0.124 0.655,-0.091C0.627,-0.059 0.592,-0.034 0.549,-0.016C0.507,0.001 0.456,0.01 0.398,0.01C0.34,0.01 0.289,0.001 0.247,-0.016C0.204,-0.034 0.169,-0.059 0.141,-0.091C0.113,-0.124 0.092,-0.163 0.079,-0.208C0.065,-0.253 0.058,-0.304 0.058,-0.359C0.058,-0.433 0.07,-0.497 0.094,-0.552C0.119,-0.607 0.156,-0.649 0.207,-0.68C0.257,-0.71 0.321,-0.725 0.399,-0.725C0.476,-0.725 0.54,-0.71 0.59,-0.68C0.64,-0.649 0.677,-0.607 0.701,-0.552C0.726,-0.497 0.738,-0.432 0.738,-0.358ZM0.217,-0.358C0.217,-0.308 0.223,-0.265 0.236,-0.229C0.248,-0.193 0.268,-0.166 0.294,-0.146C0.321,-0.127 0.356,-0.117 0.398,-0.117C0.441,-0.117 0.476,-0.127 0.502,-0.146C0.529,-0.166 0.549,-0.193 0.561,-0.229C0.573,-0.265 0.579,-0.308 0.579,-0.358C0.579,-0.433 0.565,-0.492 0.537,-0.535C0.509,-0.578 0.463,-0.599 0.399,-0.599C0.356,-0.599 0.322,-0.589 0.295,-0.57C0.268,-0.551 0.248,-0.523 0.236,-0.487C0.223,-0.451 0.217,-0.408 0.217,-0.358Z" style="fill-rule:nonzero;"/>
            </g>
            <g transform="matrix(20.9311,0,0,20.9311,172.973,30)">
                <path d="M0.527,-0L0.475,-0.17L0.215,-0.17L0.163,-0L0,-0L0.252,-0.717L0.437,-0.717L0.69,-0L0.527,-0ZM0.439,-0.297L0.387,-0.463C0.384,-0.474 0.364,-0.541 0.358,-0.559C0.353,-0.577 0.348,-0.593 0.345,-0.606C0.342,-0.593 0.337,-0.576 0.332,-0.556C0.326,-0.537 0.321,-0.518 0.315,-0.5C0.31,-0.483 0.306,-0.47 0.304,-0.463L0.253,-0.297L0.439,-0.297Z" style="fill-rule:nonzero;"/>
            </g>
            <g transform="matrix(20.9311,0,0,20.9311,188.461,30)">
                <path d="M0.682,-0.364C0.682,-0.283 0.667,-0.216 0.636,-0.162C0.605,-0.108 0.561,-0.068 0.502,-0.041C0.444,-0.014 0.374,-0 0.292,-0L0.09,-0L0.09,-0.714L0.314,-0.714C0.389,-0.714 0.454,-0.701 0.509,-0.674C0.564,-0.648 0.606,-0.608 0.637,-0.556C0.667,-0.504 0.682,-0.44 0.682,-0.364ZM0.525,-0.36C0.525,-0.413 0.517,-0.456 0.502,-0.49C0.486,-0.524 0.463,-0.549 0.433,-0.565C0.403,-0.582 0.366,-0.59 0.322,-0.59L0.241,-0.59L0.241,-0.125L0.306,-0.125C0.38,-0.125 0.435,-0.145 0.471,-0.184C0.507,-0.223 0.525,-0.282 0.525,-0.36Z" style="fill-rule:nonzero;"/>
            </g>
            <g transform="matrix(20.9311,0,0,20.9311,213.65,30)">
                <path d="M0.239,-0L0.09,-0L0.09,-0.714L0.499,-0.714L0.499,-0.59L0.239,-0.59L0.239,-0.406L0.481,-0.406L0.481,-0.282L0.239,-0.282L0.239,-0Z" style="fill-rule:nonzero;"/>
            </g>
            <g transform="matrix(20.9311,0,0,20.9311,226.184,30)">
                <path d="M0.738,-0.358C0.738,-0.303 0.731,-0.253 0.717,-0.208C0.704,-0.163 0.683,-0.124 0.655,-0.091C0.627,-0.059 0.592,-0.034 0.549,-0.016C0.507,0.001 0.456,0.01 0.398,0.01C0.34,0.01 0.289,0.001 0.247,-0.016C0.204,-0.034 0.169,-0.059 0.141,-0.091C0.113,-0.124 0.092,-0.163 0.079,-0.208C0.065,-0.253 0.058,-0.304 0.058,-0.359C0.058,-0.433 0.07,-0.497 0.094,-0.552C0.119,-0.607 0.156,-0.649 0.207,-0.68C0.257,-0.71 0.321,-0.725 0.399,-0.725C0.476,-0.725 0.54,-0.71 0.59,-0.68C0.64,-0.649 0.677,-0.607 0.701,-0.552C0.726,-0.497 0.738,-0.432 0.738,-0.358ZM0.217,-0.358C0.217,-0.308 0.223,-0.265 0.236,-0.229C0.248,-0.193 0.268,-0.166 0.294,-0.146C0.321,-0.127 0.356,-0.117 0.398,-0.117C0.441,-0.117 0.476,-0.127 0.502,-0.146C0.529,-0.166 0.549,-0.193 0.561,-0.229C0.573,-0.265 0.579,-0.308 0.579,-0.358C0.579,-0.433 0.565,-0.492 0.537,-0.535C0.509,-0.578 0.463,-0.599 0.399,-0.599C0.356,-0.599 0.322,-0.589 0.295,-0.57C0.268,-0.551 0.248,-0.523 0.236,-0.487C0.223,-0.451 0.217,-0.408 0.217,-0.358Z" style="fill-rule:nonzero;"/>
            </g>
            <g transform="matrix(20.9311,0,0,20.9311,243.89,30)">
                <path d="M0.298,-0.714C0.363,-0.714 0.416,-0.706 0.458,-0.69C0.5,-0.675 0.532,-0.651 0.552,-0.62C0.573,-0.588 0.583,-0.548 0.583,-0.5C0.583,-0.467 0.577,-0.439 0.564,-0.415C0.552,-0.39 0.536,-0.369 0.516,-0.353C0.495,-0.336 0.474,-0.322 0.45,-0.311L0.66,-0L0.492,-0L0.322,-0.274L0.241,-0.274L0.241,-0L0.09,-0L0.09,-0.714L0.298,-0.714ZM0.287,-0.59L0.241,-0.59L0.241,-0.397L0.29,-0.397C0.34,-0.397 0.376,-0.405 0.398,-0.422C0.419,-0.439 0.43,-0.464 0.43,-0.496C0.43,-0.53 0.419,-0.554 0.395,-0.568C0.372,-0.583 0.336,-0.59 0.287,-0.59Z" style="fill-rule:nonzero;"/>
            </g>
            <g transform="matrix(27.9209,0,0,27.9209,267.403,30)">
                <path d="M0.967,-0.714L0.785,-0L0.613,-0L0.516,-0.375C0.514,-0.382 0.512,-0.393 0.508,-0.408C0.505,-0.422 0.502,-0.438 0.498,-0.456C0.494,-0.473 0.491,-0.49 0.489,-0.505C0.486,-0.521 0.484,-0.533 0.483,-0.542C0.482,-0.533 0.48,-0.521 0.477,-0.505C0.475,-0.49 0.471,-0.474 0.468,-0.457C0.465,-0.439 0.461,-0.423 0.458,-0.408C0.455,-0.393 0.452,-0.382 0.45,-0.374L0.354,-0L0.182,-0L0,-0.714L0.149,-0.714L0.24,-0.324C0.243,-0.313 0.246,-0.299 0.249,-0.282C0.253,-0.266 0.256,-0.249 0.26,-0.231C0.263,-0.213 0.266,-0.196 0.269,-0.18C0.272,-0.163 0.274,-0.149 0.275,-0.137C0.277,-0.15 0.279,-0.164 0.281,-0.18C0.284,-0.197 0.287,-0.214 0.29,-0.231C0.293,-0.248 0.296,-0.264 0.299,-0.278C0.303,-0.293 0.306,-0.305 0.308,-0.314L0.412,-0.714L0.555,-0.714L0.659,-0.314C0.661,-0.305 0.664,-0.293 0.667,-0.279C0.67,-0.264 0.674,-0.248 0.677,-0.23C0.68,-0.213 0.683,-0.196 0.686,-0.18C0.689,-0.163 0.691,-0.149 0.692,-0.137C0.694,-0.153 0.697,-0.173 0.701,-0.197C0.705,-0.22 0.71,-0.243 0.715,-0.266C0.719,-0.289 0.723,-0.309 0.727,-0.324L0.818,-0.714L0.967,-0.714Z" style="fill-rule:nonzero;"/>
            </g>
            <g transform="matrix(20.9311,0,0,20.9311,295.793,30)">
                <rect x="0.09" y="-0.714" width="0.151" height="0.714" style="fill-rule:nonzero;"/>
            </g>
            <g transform="matrix(20.9311,0,0,20.9311,303.769,30)">
                <path d="M0.723,-0L0.531,-0L0.22,-0.54L0.216,-0.54C0.217,-0.518 0.218,-0.495 0.219,-0.472C0.22,-0.449 0.224,-0.359 0.225,-0.336L0.225,-0L0.09,-0L0.09,-0.714L0.281,-0.714L0.591,-0.179L0.594,-0.179C0.594,-0.201 0.593,-0.223 0.592,-0.245C0.591,-0.267 0.59,-0.289 0.589,-0.311C0.588,-0.332 0.588,-0.354 0.587,-0.376L0.587,-0.714L0.723,-0.714L0.723,-0Z" style="fill-rule:nonzero;"/>
            </g>
            <g transform="matrix(20.9311,0,0,20.9311,321.832,30)">
                <path d="M0.682,-0.364C0.682,-0.283 0.667,-0.216 0.636,-0.162C0.605,-0.108 0.561,-0.068 0.502,-0.041C0.444,-0.014 0.374,-0 0.292,-0L0.09,-0L0.09,-0.714L0.314,-0.714C0.389,-0.714 0.454,-0.701 0.509,-0.674C0.564,-0.648 0.606,-0.608 0.637,-0.556C0.667,-0.504 0.682,-0.44 0.682,-0.364ZM0.525,-0.36C0.525,-0.413 0.517,-0.456 0.502,-0.49C0.486,-0.524 0.463,-0.549 0.433,-0.565C0.403,-0.582 0.366,-0.59 0.322,-0.59L0.241,-0.59L0.241,-0.125L0.306,-0.125C0.38,-0.125 0.435,-0.145 0.471,-0.184C0.507,-0.223 0.525,-0.282 0.525,-0.36Z" style="fill-rule:nonzero;"/>
            </g>
            <g transform="matrix(20.9311,0,0,20.9311,338.373,30)">
                <path d="M0.738,-0.358C0.738,-0.303 0.731,-0.253 0.717,-0.208C0.704,-0.163 0.683,-0.124 0.655,-0.091C0.627,-0.059 0.592,-0.034 0.549,-0.016C0.507,0.001 0.456,0.01 0.398,0.01C0.34,0.01 0.289,0.001 0.247,-0.016C0.204,-0.034 0.169,-0.059 0.141,-0.091C0.113,-0.124 0.092,-0.163 0.079,-0.208C0.065,-0.253 0.058,-0.304 0.058,-0.359C0.058,-0.433 0.07,-0.497 0.094,-0.552C0.119,-0.607 0.156,-0.649 0.207,-0.68C0.257,-0.71 0.321,-0.725 0.399,-0.725C0.476,-0.725 0.54,-0.71 0.59,-0.68C0.64,-0.649 0.677,-0.607 0.701,-0.552C0.726,-0.497 0.738,-0.432 0.738,-0.358ZM0.217,-0.358C0.217,-0.308 0.223,-0.265 0.236,-0.229C0.248,-0.193 0.268,-0.166 0.294,-0.146C0.321,-0.127 0.356,-0.117 0.398,-0.117C0.441,-0.117 0.476,-0.127 0.502,-0.146C0.529,-0.166 0.549,-0.193 0.561,-0.229C0.573,-0.265 0.579,-0.308 0.579,-0.358C0.579,-0.433 0.565,-0.492 0.537,-0.535C0.509,-0.578 0.463,-0.599 0.399,-0.599C0.356,-0.599 0.322,-0.589 0.295,-0.57C0.268,-0.551 0.248,-0.523 0.236,-0.487C0.223,-0.451 0.217,-0.408 0.217,-0.358Z" style="fill-rule:nonzero;"/>
            </g>
            <g transform="matrix(20.9311,0,0,20.9311,356.078,30)">
                <path d="M0.967,-0.714L0.785,-0L0.613,-0L0.516,-0.375C0.514,-0.382 0.512,-0.393 0.508,-0.408C0.505,-0.422 0.502,-0.438 0.498,-0.456C0.494,-0.473 0.491,-0.49 0.489,-0.505C0.486,-0.521 0.484,-0.533 0.483,-0.542C0.482,-0.533 0.48,-0.521 0.477,-0.505C0.475,-0.49 0.471,-0.474 0.468,-0.457C0.465,-0.439 0.461,-0.423 0.458,-0.408C0.455,-0.393 0.452,-0.382 0.45,-0.374L0.354,-0L0.182,-0L0,-0.714L0.149,-0.714L0.24,-0.324C0.243,-0.313 0.246,-0.299 0.249,-0.282C0.253,-0.266 0.256,-0.249 0.26,-0.231C0.263,-0.213 0.266,-0.196 0.269,-0.18C0.272,-0.163 0.274,-0.149 0.275,-0.137C0.277,-0.15 0.279,-0.164 0.281,-0.18C0.284,-0.197 0.287,-0.214 0.29,-0.231C0.293,-0.248 0.296,-0.264 0.299,-0.278C0.303,-0.293 0.306,-0.305 0.308,-0.314L0.412,-0.714L0.555,-0.714L0.659,-0.314C0.661,-0.305 0.664,-0.293 0.667,-0.279C0.67,-0.264 0.674,-0.248 0.677,-0.23C0.68,-0.213 0.683,-0.196 0.686,-0.18C0.689,-0.163 0.691,-0.149 0.692,-0.137C0.694,-0.153 0.697,-0.173 0.701,-0.197C0.705,-0.22 0.71,-0.243 0.715,-0.266C0.719,-0.289 0.723,-0.309 0.727,-0.324L0.818,-0.714L0.967,-0.714Z" style="fill-rule:nonzero;"/>
            </g>
            <g transform="matrix(20.9311,0,0,20.9311,377.361,30)">
                <path d="M0.511,-0.198C0.511,-0.156 0.501,-0.119 0.48,-0.088C0.46,-0.057 0.43,-0.033 0.391,-0.016C0.352,0.001 0.304,0.01 0.248,0.01C0.223,0.01 0.199,0.008 0.176,0.005C0.152,0.002 0.129,-0.003 0.108,-0.01C0.086,-0.016 0.065,-0.024 0.046,-0.033L0.046,-0.174C0.08,-0.159 0.115,-0.145 0.151,-0.133C0.188,-0.121 0.224,-0.115 0.26,-0.115C0.285,-0.115 0.304,-0.118 0.32,-0.125C0.335,-0.132 0.346,-0.14 0.353,-0.152C0.359,-0.163 0.363,-0.176 0.363,-0.191C0.363,-0.209 0.357,-0.224 0.345,-0.237C0.333,-0.25 0.316,-0.261 0.295,-0.272C0.274,-0.284 0.25,-0.295 0.224,-0.308C0.208,-0.316 0.189,-0.325 0.17,-0.337C0.15,-0.348 0.132,-0.362 0.114,-0.378C0.097,-0.394 0.082,-0.414 0.071,-0.437C0.06,-0.461 0.054,-0.488 0.054,-0.521C0.054,-0.564 0.064,-0.6 0.083,-0.63C0.103,-0.661 0.131,-0.684 0.167,-0.7C0.204,-0.716 0.246,-0.724 0.296,-0.724C0.333,-0.724 0.368,-0.72 0.402,-0.711C0.436,-0.703 0.471,-0.69 0.508,-0.674L0.459,-0.556C0.426,-0.569 0.397,-0.58 0.371,-0.587C0.345,-0.594 0.318,-0.598 0.291,-0.598C0.272,-0.598 0.256,-0.595 0.243,-0.589C0.229,-0.583 0.219,-0.575 0.212,-0.564C0.206,-0.553 0.202,-0.54 0.202,-0.526C0.202,-0.509 0.207,-0.495 0.217,-0.483C0.227,-0.472 0.242,-0.46 0.262,-0.45C0.282,-0.439 0.307,-0.426 0.337,-0.412C0.373,-0.395 0.405,-0.377 0.43,-0.358C0.456,-0.339 0.476,-0.317 0.49,-0.292C0.504,-0.267 0.511,-0.236 0.511,-0.198Z" style="fill-rule:nonzero;"/>
            </g>
        </g>
    </g>
</svg>
