<?xml version="1.0" encoding="UTF-8" standalone="no"?>
<!DOCTYPE svg PUBLIC "-//W3C//DTD SVG 1.1//EN" "http://www.w3.org/Graphics/SVG/1.1/DTD/svg11.dtd">
<svg width="100%" height="100%" viewBox="0 0 101 15" version="1.1" xmlns="http://www.w3.org/2000/svg" xmlns:xlink="http://www.w3.org/1999/xlink" xml:space="preserve" xmlns:serif="http://www.serif.com/" style="fill-rule:evenodd;clip-rule:evenodd;stroke-linejoin:round;stroke-miterlimit:2;">
    <g id="Windows-button" serif:id="Windows button" transform="matrix(0.0972985,0,0,0.014249,2.02653e-14,0)">
        <rect x="0" y="0" width="1028" height="1028" style="fill:none;"/>
        <g transform="matrix(5.12852,0,0,24.9379,0,0)">
            <rect x="0" y="0" width="200.402" height="41.087" style="fill:rgb(194,210,223);"/>
        </g>
        <g transform="matrix(3.66409,0,0,25.02,0,0)">
            <rect x="0" y="0" width="50" height="41.087" style="fill:rgb(94,114,131);"/>
        </g>
        <g id="Windows_logo_-_2021_-White-.svg" serif:id="Windows_logo_-_2021_(White).svg" transform="matrix(0.0235998,0,0,0.161149,91.6022,514)">
            <g transform="matrix(1,0,0,1,-2437.5,-2437.5)">
                <path d="M0,0L2311,0L2311,2310L0,2310L0,0ZM2564,0L4875,0L4875,2310L2564,2310L2564,0ZM0,2564L2311,2564L2311,4875L0,4875L0,2564ZM2564,2564L4875,2564L4875,4875L2564,4875" style="fill:white;fill-rule:nonzero;"/>
            </g>
        </g>
        <g transform="matrix(2.32368,0,0,15.8671,70.4683,180.895)">
            <path d="M80.319,22.386C80.319,24.069 79.997,25.474 79.354,26.602C78.71,27.729 77.778,28.578 76.558,29.147C75.339,29.716 73.87,30 72.153,30L67.922,30L67.922,15.058L72.613,15.058C74.18,15.058 75.54,15.336 76.691,15.891C77.843,16.446 78.735,17.267 79.369,18.354C80.003,19.441 80.319,20.785 80.319,22.386ZM77.028,22.468C77.028,21.364 76.867,20.456 76.543,19.744C76.219,19.032 75.742,18.506 75.112,18.165C74.482,17.824 73.703,17.654 72.777,17.654L71.09,17.654L71.09,27.384L72.45,27.384C73.996,27.384 75.146,26.971 75.899,26.147C76.652,25.323 77.028,24.096 77.028,22.468Z" style="fill-rule:nonzero;"/>
            <path d="M98.025,22.509C98.025,23.66 97.882,24.708 97.596,25.651C97.31,26.595 96.875,27.407 96.293,28.089C95.71,28.77 94.973,29.293 94.08,29.658C93.187,30.022 92.131,30.204 90.912,30.204C89.692,30.204 88.636,30.022 87.743,29.658C86.851,29.293 86.113,28.77 85.531,28.089C84.948,27.407 84.514,26.593 84.228,25.646C83.941,24.699 83.798,23.646 83.798,22.488C83.798,20.941 84.052,19.594 84.56,18.446C85.067,17.298 85.849,16.407 86.905,15.773C87.961,15.14 89.304,14.823 90.932,14.823C92.554,14.823 93.888,15.14 94.933,15.773C95.979,16.407 96.756,17.3 97.264,18.451C97.771,19.603 98.025,20.955 98.025,22.509ZM87.12,22.509C87.12,23.551 87.251,24.449 87.513,25.202C87.776,25.954 88.186,26.534 88.745,26.939C89.304,27.344 90.026,27.547 90.912,27.547C91.811,27.547 92.54,27.344 93.099,26.939C93.658,26.534 94.065,25.954 94.32,25.202C94.576,24.449 94.703,23.551 94.703,22.509C94.703,20.941 94.41,19.708 93.824,18.809C93.239,17.909 92.274,17.46 90.932,17.46C90.04,17.46 89.312,17.662 88.75,18.068C88.188,18.473 87.776,19.052 87.513,19.805C87.251,20.558 87.12,21.459 87.12,22.509Z" style="fill-rule:nonzero;"/>
            <path d="M120.524,15.058L116.722,30L113.114,30L111.091,22.151C111.05,22.001 110.995,21.773 110.927,21.466C110.859,21.159 110.787,20.824 110.713,20.459C110.638,20.095 110.571,19.751 110.513,19.427C110.455,19.103 110.416,18.846 110.396,18.655C110.375,18.846 110.336,19.102 110.278,19.422C110.22,19.742 110.155,20.083 110.084,20.444C110.012,20.805 109.943,21.142 109.874,21.456C109.806,21.769 109.752,22.008 109.711,22.171L107.698,30L104.1,30L100.288,15.058L103.405,15.058L105.316,23.214C105.371,23.459 105.434,23.752 105.505,24.093C105.577,24.433 105.648,24.789 105.72,25.161C105.791,25.532 105.856,25.89 105.914,26.234C105.972,26.578 106.015,26.876 106.042,27.128C106.076,26.869 106.12,26.568 106.175,26.224C106.229,25.88 106.289,25.529 106.354,25.171C106.418,24.813 106.485,24.481 106.553,24.174C106.621,23.868 106.682,23.619 106.737,23.428L108.914,15.058L111.908,15.058L114.085,23.428C114.133,23.612 114.189,23.859 114.254,24.169C114.319,24.479 114.385,24.815 114.453,25.176C114.521,25.537 114.584,25.89 114.642,26.234C114.7,26.578 114.743,26.876 114.77,27.128C114.818,26.787 114.884,26.374 114.969,25.886C115.054,25.399 115.146,24.914 115.245,24.43C115.344,23.946 115.431,23.541 115.506,23.214L117.407,15.058L120.524,15.058Z" style="fill-rule:nonzero;"/>
            <path d="M136.707,30L132.68,30L126.18,18.696L126.088,18.696C126.115,19.166 126.139,19.64 126.159,20.117C126.18,20.594 126.2,21.069 126.221,21.543C126.241,22.016 126.262,22.491 126.282,22.968L126.282,30L123.451,30L123.451,15.058L127.447,15.058L133.937,26.249L134.009,26.249C133.995,25.786 133.978,25.326 133.958,24.869C133.937,24.413 133.918,23.956 133.901,23.5C133.884,23.043 133.869,22.587 133.855,22.13L133.855,15.058L136.707,15.058L136.707,30Z" style="fill-rule:nonzero;"/>
            <path d="M141.514,30L141.514,15.058L144.683,15.058L144.683,27.384L150.743,27.384L150.743,30L141.514,30Z" style="fill-rule:nonzero;"/>
            <path d="M167.948,22.509C167.948,23.66 167.805,24.708 167.519,25.651C167.233,26.595 166.798,27.407 166.216,28.089C165.633,28.77 164.896,29.293 164.003,29.658C163.111,30.022 162.054,30.204 160.835,30.204C159.615,30.204 158.559,30.022 157.667,29.658C156.774,29.293 156.036,28.77 155.454,28.089C154.871,27.407 154.437,26.593 154.151,25.646C153.865,24.699 153.722,23.646 153.722,22.488C153.722,20.941 153.975,19.594 154.483,18.446C154.991,17.298 155.772,16.407 156.828,15.773C157.885,15.14 159.227,14.823 160.855,14.823C162.477,14.823 163.811,15.14 164.857,15.773C165.902,16.407 166.679,17.3 167.187,18.451C167.694,19.603 167.948,20.955 167.948,22.509ZM157.043,22.509C157.043,23.551 157.174,24.449 157.437,25.202C157.699,25.954 158.109,26.534 158.668,26.939C159.227,27.344 159.949,27.547 160.835,27.547C161.734,27.547 162.463,27.344 163.022,26.939C163.581,26.534 163.988,25.954 164.243,25.202C164.499,24.449 164.627,23.551 164.627,22.509C164.627,20.941 164.334,19.708 163.748,18.809C163.162,17.909 162.198,17.46 160.855,17.46C159.963,17.46 159.235,17.662 158.673,18.068C158.111,18.473 157.699,19.052 157.437,19.805C157.174,20.558 157.043,21.459 157.043,22.509Z" style="fill-rule:nonzero;"/>
            <path d="M181.239,30L180.155,26.443L174.708,26.443L173.624,30L170.211,30L175.485,14.997L179.358,14.997L184.652,30L181.239,30ZM179.399,23.786L178.316,20.311C178.247,20.08 178.157,19.781 178.045,19.417C177.932,19.052 177.82,18.681 177.707,18.303C177.595,17.925 177.505,17.596 177.437,17.317C177.369,17.596 177.275,17.942 177.156,18.354C177.036,18.766 176.922,19.156 176.813,19.524C176.704,19.892 176.626,20.154 176.578,20.311L175.505,23.786L179.399,23.786Z" style="fill-rule:nonzero;"/>
            <path d="M199.976,22.386C199.976,24.069 199.655,25.474 199.011,26.602C198.367,27.729 197.435,28.578 196.215,29.147C194.996,29.716 193.527,30 191.81,30L187.579,30L187.579,15.058L192.27,15.058C193.837,15.058 195.197,15.336 196.348,15.891C197.5,16.446 198.392,17.267 199.026,18.354C199.66,19.441 199.976,20.785 199.976,22.386ZM196.686,22.468C196.686,21.364 196.524,20.456 196.2,19.744C195.876,19.032 195.399,18.506 194.769,18.165C194.139,17.824 193.361,17.654 192.434,17.654L190.748,17.654L190.748,27.384L192.107,27.384C193.654,27.384 194.803,26.971 195.556,26.147C196.309,25.323 196.686,24.096 196.686,22.468Z" style="fill-rule:nonzero;"/>
            <path d="M215.886,30L212.769,30L212.769,15.058L221.333,15.058L221.333,17.654L215.886,17.654L215.886,21.507L220.955,21.507L220.955,24.093L215.886,24.093L215.886,30Z" style="fill-rule:nonzero;"/>
            <path d="M238.865,22.509C238.865,23.66 238.722,24.708 238.436,25.651C238.15,26.595 237.715,27.407 237.133,28.089C236.55,28.77 235.813,29.293 234.92,29.658C234.028,30.022 232.972,30.204 231.752,30.204C230.532,30.204 229.476,30.022 228.584,29.658C227.691,29.293 226.953,28.77 226.371,28.089C225.788,27.407 225.354,26.593 225.068,25.646C224.782,24.699 224.639,23.646 224.639,22.488C224.639,20.941 224.892,19.594 225.4,18.446C225.908,17.298 226.689,16.407 227.746,15.773C228.802,15.14 230.144,14.823 231.772,14.823C233.394,14.823 234.728,15.14 235.774,15.773C236.819,16.407 237.596,17.3 238.104,18.451C238.611,19.603 238.865,20.955 238.865,22.509ZM227.96,22.509C227.96,23.551 228.091,24.449 228.354,25.202C228.616,25.954 229.026,26.534 229.585,26.939C230.144,27.344 230.866,27.547 231.752,27.547C232.651,27.547 233.38,27.344 233.939,26.939C234.498,26.534 234.905,25.954 235.16,25.202C235.416,24.449 235.544,23.551 235.544,22.509C235.544,20.941 235.251,19.708 234.665,18.809C234.079,17.909 233.115,17.46 231.772,17.46C230.88,17.46 230.152,17.662 229.59,18.068C229.028,18.473 228.616,19.052 228.354,19.805C228.091,20.558 227.96,21.459 227.96,22.509Z" style="fill-rule:nonzero;"/>
            <path d="M247.362,15.058C248.718,15.058 249.837,15.221 250.72,15.549C251.602,15.876 252.258,16.37 252.687,17.03C253.116,17.691 253.331,18.526 253.331,19.534C253.331,20.216 253.202,20.812 252.943,21.323C252.684,21.834 252.343,22.267 251.921,22.621C251.498,22.975 251.042,23.265 250.551,23.49L254.946,30L251.43,30L247.863,24.266L246.177,24.266L246.177,30L243.009,30L243.009,15.058L247.362,15.058ZM247.138,17.654L246.177,17.654L246.177,21.691L247.199,21.691C248.248,21.691 248.999,21.515 249.452,21.165C249.906,20.814 250.132,20.298 250.132,19.616C250.132,18.908 249.888,18.403 249.401,18.104C248.914,17.804 248.16,17.654 247.138,17.654Z" style="fill-rule:nonzero;"/>
            <path d="M291.635,10.068L286.564,30L281.751,30L279.052,19.53C278.997,19.33 278.924,19.025 278.834,18.616C278.743,18.207 278.647,17.76 278.547,17.273C278.447,16.787 278.359,16.328 278.281,15.896C278.204,15.465 278.152,15.122 278.125,14.867C278.097,15.122 278.045,15.462 277.968,15.89C277.891,16.317 277.804,16.771 277.709,17.253C277.613,17.735 277.52,18.185 277.429,18.603C277.338,19.021 277.266,19.339 277.211,19.557L274.525,30L269.727,30L264.641,10.068L268.799,10.068L271.349,20.948C271.422,21.275 271.506,21.666 271.601,22.12C271.697,22.574 271.792,23.049 271.887,23.545C271.983,24.04 272.069,24.517 272.146,24.976C272.224,25.435 272.28,25.833 272.317,26.169C272.362,25.824 272.421,25.421 272.494,24.963C272.567,24.504 272.646,24.035 272.733,23.558C272.819,23.081 272.908,22.638 272.998,22.229C273.089,21.82 273.171,21.488 273.244,21.234L276.148,10.068L280.142,10.068L283.046,21.234C283.11,21.479 283.185,21.809 283.271,22.222C283.358,22.636 283.446,23.083 283.537,23.565C283.628,24.047 283.712,24.517 283.789,24.976C283.866,25.435 283.923,25.833 283.96,26.169C284.023,25.715 284.112,25.162 284.225,24.513C284.339,23.863 284.462,23.215 284.594,22.57C284.725,21.925 284.841,21.384 284.941,20.948L287.477,10.068L291.635,10.068Z" style="fill-rule:nonzero;"/>
            <rect x="294.912" y="15.058" width="3.168" height="14.942" style="fill-rule:nonzero;"/>
            <path d="M316.143,30L312.117,30L305.616,18.696L305.524,18.696C305.552,19.166 305.576,19.64 305.596,20.117C305.616,20.594 305.637,21.069 305.657,21.543C305.678,22.016 305.698,22.491 305.719,22.968L305.719,30L302.888,30L302.888,15.058L306.884,15.058L313.374,26.249L313.445,26.249C313.432,25.786 313.415,25.326 313.394,24.869C313.374,24.413 313.355,23.956 313.338,23.5C313.321,23.043 313.306,22.587 313.292,22.13L313.292,15.058L316.143,15.058L316.143,30Z" style="fill-rule:nonzero;"/>
            <path d="M333.348,22.386C333.348,24.069 333.026,25.474 332.382,26.602C331.739,27.729 330.807,28.578 329.587,29.147C328.368,29.716 326.899,30 325.182,30L320.951,30L320.951,15.058L325.642,15.058C327.209,15.058 328.569,15.336 329.72,15.891C330.871,16.446 331.764,17.267 332.398,18.354C333.031,19.441 333.348,20.785 333.348,22.386ZM330.057,22.468C330.057,21.364 329.895,20.456 329.572,19.744C329.248,19.032 328.771,18.506 328.141,18.165C327.511,17.824 326.732,17.654 325.806,17.654L324.119,17.654L324.119,27.384L325.479,27.384C327.025,27.384 328.175,26.971 328.928,26.147C329.681,25.323 330.057,24.096 330.057,22.468Z" style="fill-rule:nonzero;"/>
            <path d="M351.054,22.509C351.054,23.66 350.911,24.708 350.625,25.651C350.338,26.595 349.904,27.407 349.321,28.089C348.739,28.77 348.001,29.293 347.109,29.658C346.216,30.022 345.16,30.204 343.941,30.204C342.721,30.204 341.665,30.022 340.772,29.658C339.88,29.293 339.142,28.77 338.56,28.089C337.977,27.407 337.543,26.593 337.256,25.646C336.97,24.699 336.827,23.646 336.827,22.488C336.827,20.941 337.081,19.594 337.589,18.446C338.096,17.298 338.878,16.407 339.934,15.773C340.99,15.14 342.333,14.823 343.961,14.823C345.583,14.823 346.916,15.14 347.962,15.773C349.008,16.407 349.785,17.3 350.292,18.451C350.8,19.603 351.054,20.955 351.054,22.509ZM340.149,22.509C340.149,23.551 340.28,24.449 340.542,25.202C340.805,25.954 341.215,26.534 341.774,26.939C342.333,27.344 343.055,27.547 343.941,27.547C344.84,27.547 345.569,27.344 346.128,26.939C346.686,26.534 347.093,25.954 347.349,25.202C347.604,24.449 347.732,23.551 347.732,22.509C347.732,20.941 347.439,19.708 346.853,18.809C346.267,17.909 345.303,17.46 343.961,17.46C343.068,17.46 342.341,17.662 341.779,18.068C341.217,18.473 340.805,19.052 340.542,19.805C340.28,20.558 340.149,21.459 340.149,22.509Z" style="fill-rule:nonzero;"/>
            <path d="M373.553,15.058L369.751,30L366.143,30L364.119,22.151C364.079,22.001 364.024,21.773 363.956,21.466C363.888,21.159 363.816,20.824 363.741,20.459C363.666,20.095 363.6,19.751 363.542,19.427C363.484,19.103 363.445,18.846 363.424,18.655C363.404,18.846 363.365,19.102 363.307,19.422C363.249,19.742 363.184,20.083 363.113,20.444C363.041,20.805 362.971,21.142 362.903,21.456C362.835,21.769 362.781,22.008 362.74,22.171L360.726,30L357.129,30L353.317,15.058L356.434,15.058L358.345,23.214C358.399,23.459 358.463,23.752 358.534,24.093C358.606,24.433 358.677,24.789 358.749,25.161C358.82,25.532 358.885,25.89 358.943,26.234C359.001,26.578 359.043,26.876 359.071,27.128C359.105,26.869 359.149,26.568 359.203,26.224C359.258,25.88 359.318,25.529 359.382,25.171C359.447,24.813 359.514,24.481 359.582,24.174C359.65,23.868 359.711,23.619 359.766,23.428L361.943,15.058L364.937,15.058L367.114,23.428C367.162,23.612 367.218,23.859 367.283,24.169C367.347,24.479 367.414,24.815 367.482,25.176C367.55,25.537 367.613,25.89 367.671,26.234C367.729,26.578 367.771,26.876 367.799,27.128C367.846,26.787 367.913,26.374 367.998,25.886C368.083,25.399 368.175,24.914 368.274,24.43C368.373,23.946 368.46,23.541 368.535,23.214L370.436,15.058L373.553,15.058Z" style="fill-rule:nonzero;"/>
            <path d="M385.3,25.851C385.3,26.736 385.085,27.506 384.656,28.16C384.227,28.814 383.602,29.319 382.781,29.673C381.96,30.027 380.963,30.204 379.791,30.204C379.273,30.204 378.767,30.17 378.274,30.102C377.78,30.034 377.306,29.934 376.853,29.801C376.4,29.668 375.969,29.503 375.56,29.305L375.56,26.362C376.269,26.675 377.004,26.958 377.768,27.21C378.531,27.462 379.287,27.588 380.037,27.588C380.554,27.588 380.972,27.52 381.289,27.384C381.605,27.247 381.835,27.06 381.978,26.821C382.121,26.583 382.193,26.31 382.193,26.004C382.193,25.629 382.067,25.309 381.815,25.043C381.563,24.777 381.217,24.529 380.777,24.297C380.338,24.065 379.842,23.817 379.29,23.551C378.943,23.387 378.565,23.188 378.156,22.953C377.747,22.718 377.359,22.43 376.991,22.089C376.623,21.749 376.321,21.335 376.086,20.848C375.851,20.361 375.734,19.776 375.734,19.095C375.734,18.202 375.938,17.439 376.347,16.806C376.756,16.172 377.34,15.686 378.1,15.349C378.859,15.012 379.757,14.843 380.793,14.843C381.57,14.843 382.311,14.934 383.016,15.114C383.721,15.295 384.458,15.555 385.228,15.896L384.206,18.359C383.518,18.08 382.902,17.863 382.357,17.71C381.811,17.557 381.256,17.48 380.691,17.48C380.295,17.48 379.958,17.543 379.679,17.669C379.399,17.795 379.188,17.972 379.045,18.201C378.902,18.429 378.831,18.693 378.831,18.993C378.831,19.347 378.934,19.645 379.142,19.887C379.35,20.129 379.663,20.362 380.083,20.587C380.502,20.812 381.024,21.074 381.651,21.374C382.414,21.735 383.067,22.112 383.609,22.503C384.15,22.895 384.568,23.355 384.86,23.883C385.153,24.411 385.3,25.067 385.3,25.851Z" style="fill-rule:nonzero;"/>
        </g>
    </g>
</svg>
